<svg xmlns="http://www.w3.org/2000/svg" width="242.711" height="58.39" viewBox="0 0 242.711 58.39">
  <defs>
    <style>.a{fill:#e0061c;}.a,.b,.c{fill-rule:evenodd;}.b{fill:#e95e0f;}.c{fill:#f19300;}</style>
  </defs>
  <g transform="translate(149.85 36.05)">
    <g transform="translate(-149.85 -36.05)">
      <path
        d="M140,18.2a5.507,5.507,0,0,0,5.507,3.887c3.32,0,5.345-2.187,5.345-4.94,0-5.669-8.26-4.778-8.26-8.827a2.691,2.691,0,0,1,3-2.672,3.563,3.563,0,0,1,3.32,2.187l1.7-.729a5.1,5.1,0,0,0-5.021-3.4c-3.158,0-5.021,2.025-5.021,4.535,0,5.669,8.26,4.535,8.26,8.989a2.833,2.833,0,0,1-3.158,2.915,3.806,3.806,0,0,1-3.887-2.753l-1.7.729Zm14.334-5.264a8.989,8.989,0,1,0,8.989-8.989,8.989,8.989,0,0,0-8.989,8.989Zm2.106,0a6.891,6.891,0,1,1,13.767,0,6.891,6.891,0,1,1-13.767,0Zm20.327,8.827h2.025V13.822H184.3V11.959h-5.507V5.967h6.317V4.1h-8.341V21.759Zm16.521,0h2.025V5.967h4.7V4.1H188.591V5.967h4.778V21.678Zm25.186,0h2.268l5.1-17.655h-2.187l-4.049,15.063L215.235,4.1H213.21l-4.292,15.063L204.869,4.1h-2.187L207.7,21.759h2.268L214.263,7.1l4.292,14.577Zm18.95-5.75,2.106,5.75h2.025L235.076,4.1h-2.025l-6.56,17.655h2.025l2.106-5.75Zm-.567-1.782h-5.669l2.834-7.855,2.834,7.936Zm8.584,7.451h2.025V14.065h3l3.968,7.694H256.7l-4.373-8.1a4.616,4.616,0,0,0,3.077-4.7c0-3.077-1.863-4.859-5.507-4.859h-4.454V21.678Zm2.025-9.475V5.886h2.349c2.511,0,3.482,1.215,3.482,3.077a3.125,3.125,0,0,1-3.32,3.239Zm13.2,9.475h8.665V19.9h-6.56V13.66h5.507V11.8h-5.507V5.967h6.317V4.1h-8.341V21.678Z"
        transform="translate(-26.622 -0.703)"/>
      <path
        d="M140,51.549h3.482c5.669,0,9.07-2.834,9.07-8.5s-3.32-8.5-9.07-8.5H140Zm1.944-1.782V36.324h1.944c4.049,0,6.722,2.511,6.722,6.722s-2.592,6.722-6.722,6.722Zm13.443,1.782h8.341V49.768h-6.317V43.775h5.345V41.993h-5.345V36.324h6.074V34.542h-8.017V51.549Zm18.383,0,6.479-16.926h-2.187l-5.345,14.658-5.345-14.658h-2.187l6.479,16.926Zm8.584,0H190.7V49.768H184.38V43.775h5.345V41.993H184.38V36.324h6.074V34.542h-8.017V51.549Zm11.5,0H202.2V49.768h-6.317V34.542h-1.944V51.549Zm8.908-8.5a8.665,8.665,0,1,0,8.665-8.665A8.665,8.665,0,0,0,202.763,43.046Zm2.025,0a6.648,6.648,0,1,1,13.281,0,6.648,6.648,0,1,1-13.281,0Zm18.141,8.5h1.944V44.423h2.673a4.762,4.762,0,0,0,5.1-4.94c0-3-2.025-4.859-5.1-4.859h-4.616Zm1.944-8.827v-6.4h2.592a2.915,2.915,0,0,1,3.239,3.158,3,3,0,0,1-3.239,3.239Zm10.366,8.827h8.341V49.768h-6.317V43.775h5.345V41.993h-5.345V36.324h6.074V34.542h-8.017V51.549Zm11.5,0h1.944V44.18H251.6l3.806,7.37h2.187l-4.211-7.775a4.454,4.454,0,0,0,3-4.454c0-3-1.782-4.7-5.264-4.7h-4.292V51.549Zm1.944-9.07V36.324h2.268c2.43,0,3.32,1.215,3.32,3a3.04,3.04,0,0,1-3.239,3.158Zm10.2,5.669a5.264,5.264,0,0,0,5.345,3.725c3.158,0,5.1-2.106,5.1-4.778,0-5.426-7.936-4.616-7.936-8.5a2.521,2.521,0,0,1,2.834-2.511,3.4,3.4,0,0,1,3.158,2.106l1.62-.648A4.94,4.94,0,0,0,264.23,34.3c-3,0-4.859,1.944-4.859,4.373,0,5.507,7.936,4.373,7.936,8.665a2.789,2.789,0,0,1-3.077,2.834A3.644,3.644,0,0,1,260.5,47.5l-1.7.729Z"
        transform="translate(-26.622 -6.522)"/>
      <path class="a" d="M0,0H29.235V35.633H14.982V4.94H6.722V43.327H29.235v4.94H0V0Z"/>
      <path class="b" d="M42.3,0H71.535V4.94c-10.123.162-14.5,5.507-16.683,12.229L51.289,28.345c-1.3,4.049-3.32,6.884-8.908,6.884V0ZM71.535,13.039V48.267H42.3v-4.94c10.528,0,14.9-5.507,17.088-12.229l3.644-11.176c1.134-3.482,3.239-6.722,8.5-6.884Z"
            transform="translate(-8.044)"/>
      <path class="b" d="M42.3,65.9H71.535v5.021H42.3V65.9Z" transform="translate(-8.044 -12.531)"/>
      <path class="c"
            d="M91.017,35.714V26.968h6.074a4.373,4.373,0,1,1,0,8.746ZM84.7,0h29.235V48.267H84.7v-4.94H98.062A11.9,11.9,0,0,0,109.886,31.5a10.285,10.285,0,0,0-4.454-8.584,9.475,9.475,0,0,0,3.4-6.884A11.014,11.014,0,0,0,97.819,4.94H84.7Zm6.317,12.553h5.831a3.563,3.563,0,0,1,0,7.127H91.017Z"
            transform="translate(-16.106)"/>
    </g>
  </g>
</svg>
