<svg xmlns="http://www.w3.org/2000/svg" width="751.635" height="464.222" viewBox="0 0 751.635 464.222">
  <defs>
    <style>.a{fill:#2f2f31;}.b{fill:#e8e8e9;}.c{fill:#f2b541;}</style>
  </defs>
  <g transform="translate(3049.872 1462.399)">
    <g transform="translate(-3222.258 -1611.129)">
      <g transform="translate(19.755 148.73)">
        <path class="a"
              d="M1640.3,991.086c-.012,1.031,2.8,2.487,3.972,2.612a404.319,404.319,0,0,0,77.1,1.288,2.2,2.2,0,0,0,2.062-1.537c.813-3.038,7.25-2.338,9.463-2.475l8.612-.562,19.813-1.288,38.763-2.5-1.888-1.063,2.638,6.125a2.161,2.161,0,0,0,1.9,1.063c15.388.6,30.788.5,46.15-.413q11.088-.662,22.15-1.825,5.95-.625,11.875-1.413c1.213-.162,9.575-1.475,9.438-.437-.263,1.888,2.812,2.563,3.587.938,2.413-5.075-3.9-6.487-7.675-5.975-9.687,1.287-19.337,2.637-29.075,3.462a466.444,466.444,0,0,1-56.388,1.313l1.9,1.063-2.65-6.112a2.141,2.141,0,0,0-1.887-1.062l-47.388,3.2c-7.75.525-15.512.987-23.262,1.562-4.062.3-8.925.725-10.15,5.338l2.063-1.537a387.66,387.66,0,0,1-77.1-1.275S1640.31,990.055,1640.3,991.086Z"
              transform="translate(-1398.875 -971.227)"/>
        <path class="a"
              d="M4119.268,1027.408a9.129,9.129,0,0,0-.775,7.925c1.225,3.35,2.25,3.538,5.563,3.738q14.513.913,29.05.825,14.112-.075,28.188-1.075,6.825-.488,13.625-1.175c2.725-.275,5.387-.037,6.387-2.95a2.148,2.148,0,0,0-1.525-2.637l-.312-.1c-2.288-.7-3.95,2.825-1.687,3.913l.287.137-.787-2.937c-.4.787-7.812.725-9.112.838q-4.263.375-8.525.675-9.813.688-19.638.975c-12.812.387-25.65.225-38.462-.4l1.625.912a15.2,15.2,0,0,1-2.175-8.225.927.927,0,0,0-1.712-.45Z"
              transform="translate(-3625.936 -1010.313)"/>
        <path class="a"
              d="M4763.781,953.883c.45-2.062-.4-4.612.438-6.537,1.412-3.237,8.862-2.825,11.812-3.163q10.05-1.15,20.113-2.05c13.438-1.2,26.888-2.162,40.362-2.787l-2.337-2.325c.05,2.6.037,5.188.337,7.775s4.175,2.813,4.388,0c.2-2.588.1-5.175.05-7.775a2.353,2.353,0,0,0-2.35-2.338c-17.425.8-34.788,2.138-52.112,4.138q-6.7.775-13.4,1.662c-2.675.35-5.863.313-8.163,1.9-3.812,2.637-3.413,8.9-.125,11.75a.613.613,0,0,0,1-.263Z"
              transform="translate(-4187.923 -929.576)"/>
        <path class="a"
              d="M5379.617,908.672c11.5,2.325,23.487,2.112,35.163,2.537q18.337.662,36.675,1.225a2.287,2.287,0,0,0,2.013-3.388,11.332,11.332,0,0,1-.925-8.1l-2.8,1.575a128.919,128.919,0,0,0,36.038.575,149.562,149.562,0,0,0,17.537-3.5c3.45-.875,7.888-2.213,11.263-.463,2.175,1.125,4.488,4.538,2.575,6.862a2.393,2.393,0,0,0,1.675,4.038q19.737,2.45,39.612,3.375,9.726.438,19.45.5c6.212.037,13.063.713,19.125-.825,1.725-.437,1.913-3.2.038-3.562-6.15-1.175-12.838-.312-19.088-.35q-9.724-.062-19.45-.5-19.876-.9-39.613-3.388l1.675,4.038c3.038-3.7,2.512-8.525-.738-12-4.437-4.75-11.262-3.725-16.925-2.25-17.15,4.475-34.362,5.937-51.937,3.162a2.351,2.351,0,0,0-2.8,1.575,16.338,16.338,0,0,0,1.337,11.537l2.013-3.387q-18.338-.588-36.675-1.113c-11.675-.325-23.587-1.263-35.2.3a.8.8,0,0,0-.013,1.538Z"
              transform="translate(-4729.434 -893.839)"/>
        <path class="a" d="M2233.738,3319.688a.544.544,0,0,0,.012-1.088A.544.544,0,0,0,2233.738,3319.688Z" transform="translate(-1976.805 -3015.505)"/>
        <path class="a"
              d="M3125.532,3187.1a44.007,44.007,0,0,1,18.812-9.55l-2.512-3.225-6.037,8.963c-1.138,1.675.75,3.887,2.6,3.325l10.175-3.112-2.65-1.05a9.375,9.375,0,0,1,2.05,4.925c.137,1.088,1.338,1.613,2.263,1.713,4.162.45,7.662-1.525,11.488-2.825,2.912-.987,3.938-.862,6.113,1.238a7.123,7.123,0,0,0,4.037,2.387c3.037.525,6.55-.25,9.6-.488s6.288-.475,9.438-.687c6.575-.45,13.162-.887,19.737-1.237,13.175-.7,26.35-1.088,39.537-1.337,3.1-.063,6.35-.338,9.375.5,2.5.688,4.6,2.388,7.125,3,4.775,1.15,11.775-3.85,15.4.413,1.438,1.688,3.75-.475,2.938-2.25-1.75-3.812-6.025-4.512-9.825-3.825-4.175.762-6.3,1.662-10.5-.137a24.011,24.011,0,0,0-6.7-1.963c-6.762-.8-13.85-.175-20.65-.012q-10.75.263-21.487.75c-6.875.313-13.738.65-20.6,1.087q-5.576.35-11.15.788c-2.962.225-7.95,1.55-10.812.838-2.15-.538-3.075-2.875-5.038-3.812a8.123,8.123,0,0,0-4.387-.6c-4.738.487-8.687,4.012-13.575,3.5l2.263,1.712a11.974,11.974,0,0,0-2.538-6.075,2.432,2.432,0,0,0-2.65-1.05l-10.15,3.2,2.6,3.325,5.925-9.037c1.113-1.7-.725-3.663-2.512-3.225-8.1,2.012-13.988,5.963-19.325,12.225a1.149,1.149,0,0,0,1.65,1.6Z"
              transform="translate(-2510.646 -2896.496)"/>
        <path class="a"
              d="M6604.869,3095.781c4.325-1.675,8-5.325,12.112-7.587,1.075-.588,2.225-1.088,3.275-1.7l1.338-.625q1.225-1.65.512-.163c-.062,2.1-2.087,5.575-2.812,7.525a2.219,2.219,0,0,0,1.038,2.5c2.712,1.825,5.612,1.063,8.15-.75a36.722,36.722,0,0,0,3.863-3.775c.888-.85,3.387-3.212,4.425-.962.325.7-.462,2.662-.525,3.375-.213,2.563.263,5.675,2.925,6.825,3.325,1.45,7.4-2.15,10.037-3.663l-3.475-1.95c-.4,3.65,2.337,6.425,5.887,6.762a12.475,12.475,0,0,0,5.988-1.275,17.607,17.607,0,0,1,8.138-1.4c12.462.413,25.35,1.9,37.763.525,1.387-.15,2.05-2.312.387-2.638-8.925-1.7-18.125-1.6-27.187-1.962-4.337-.175-8.712-.512-13.05-.525a16.476,16.476,0,0,0-5.062.65c-1.375.45-8.7,4.188-8.238-.137.2-1.813-2.1-2.75-3.475-1.95-.8.463-4.5,3.3-5.288,3.063-1.65-.5-.45-3.337-.338-4.487.225-2.525-.424-5.088-2.887-6.275-2.1-1.013-4.4-.413-6.35.675-2.225,1.25-6.663,7.837-9.4,6l1.038,2.5c1.15-3.087,7.05-15.025-1.375-13.363-3.463.688-7.038,3.263-9.962,5.138-3.138,2.012-7.113,4.45-8.913,7.775-.487.9.35,2.288,1.45,1.863Z"
              transform="translate(-5800.612 -2807.461)"/>
        <path class="a" d="M3391.917,989.245c1.712.7,3.038,2.325,2.5,4.238-.625,2.2,2.75,3.625,3.787,1.525a6.334,6.334,0,0,0-5.362-9.013C3391.217,985.945,3390.217,988.545,3391.917,989.245Z" transform="translate(-2989.91 -974.475)"/>
        <path class="a" d="M3414.662,1079.45a.475.475,0,0,0,.013-.95A.475.475,0,0,0,3414.662,1079.45Z" transform="translate(-3010.18 -1055.417)"/>
        <path class="a" d="M3333.485,2861.839c-.562,11.588-1.288,23.488-.45,35.075a.839.839,0,0,0,1.675,0c.188-11.7-.337-23.362.15-35.075.038-.875-1.337-.862-1.387,0Z" transform="translate(-2604.828 -2631.604)"/>
        <path class="a" d="M3372.1,1104.4c-.062,8.875-.55,17.687-.4,26.587.15,8.563-.375,17.738,1.35,26.137.3,1.438,2.775,1.488,3-.012,1.312-8.475.237-17.588-.388-26.125-.65-8.85-1.75-17.738-2.212-26.587A.676.676,0,0,0,3372.1,1104.4Z"
              transform="translate(-2972.968 -1077.522)"/>
        <path class="a" d="M4109.963,1038.276c3.325,11.75,1.738,25.175,1.613,37.25-.125,12.775.2,25.587,1,38.337a.826.826,0,0,0,1.65,0c.9-13.325,1.25-26.7,1.188-40.05-.062-12.238.638-24.388-4.038-35.925-.337-.825-1.675-.537-1.413.375Z"
              transform="translate(-3618.943 -1019.456)"/>
        <path class="a" d="M4109.963,1038.276c3.325,11.75,1.738,25.175,1.613,37.25-.125,12.775.2,25.587,1,38.337a.826.826,0,0,0,1.65,0c.9-13.325,1.25-26.7,1.188-40.05-.062-12.238.638-24.388-4.038-35.925-.337-.825-1.675-.537-1.413.375Z"
              transform="translate(-3798.679 -853.563)"/>
        <path class="a"
              d="M4752.146,1188.5c-1.45,3.137-1.625,6.35-1.862,9.762-.326,4.813-.675,9.613-.7,14.438-.038,9.612.387,19.275.825,28.887a1,1,0,0,0,2,0c.7-9.038,1.313-18.112,1.65-27.175.175-4.537.1-9.062-.062-13.587-.138-3.9-.85-8.063-.375-11.925.1-.775-1.175-1.075-1.487-.387Z"
              transform="translate(-4178.639 -1151.34)"/>
        <path class="a"
              d="M4773.925,2631.8c-.038,12.075.3,24.188-.288,36.25q-.431,8.85-.425,17.712c.012,5.65-.75,11.588.012,17.175.188,1.325,2.15,1.075,2.487-.013,1.663-5.375,1.663-11.575,2.175-17.163a134.222,134.222,0,0,0,.4-18.562c-.562-11.962-1.125-23.762-3-35.587-.125-.762-1.362-.562-1.362.175Z"
              transform="translate(-4199.03 -2413.969)"/>
        <path class="a" d="M4714.7,3179.947v1.662a.451.451,0,0,0,.9,0v-1.662A.451.451,0,0,0,4714.7,3179.947Z" transform="translate(-4148.118 -2893.814)"/>
        <path class="a"
              d="M4590.969,3085.857a20.459,20.459,0,0,1-2.95.712l.538,1.3c1.5-1.8,1.175-4.075,1.45-6.337a93.909,93.909,0,0,1,1.85-9.825,1.727,1.727,0,0,0-3.337-.875,40.926,40.926,0,0,0-2,9.538c-.212,2.475-.8,5.525.938,7.513a.792.792,0,0,0,.938.112,18.889,18.889,0,0,1,2.85-1.075.543.543,0,0,0-.275-1.05Z"
              transform="translate(-4193.206 -2797.649)"/>
        <path class="a" d="M5346.845,1057.02c-2.812,9.013-2.538,20.55-1.05,29.787.3,1.838,2.925,1.188,3.088-.4a130.143,130.143,0,0,0,.325-15.462c-.087-4.613.025-9.413-.95-13.925a.743.743,0,0,0-1.412,0Z" transform="translate(-4699.362 -1036.175)"/>
        <path class="a" d="M2751.239,1056.289c-3.925,8-1.762,18.125-.437,26.5.175,1.137,2.05.85,2.025-.262-.175-8.425,2.137-17.787,0-26.038A.883.883,0,0,0,2751.239,1056.289Z" transform="translate(-2428.131 -1035.618)"/>
        <path class="a"
              d="M2670.509,3137.863c0-2.238.563-4.162.45-6.45-.1-1.875-.3-3.762-.488-5.625-.362-3.588-.5-7.363-1.85-10.725a1.174,1.174,0,0,0-2.287.3c-.4,3.975.562,8.087,1,12.037.163,1.475.3,2.963.488,4.438.275,2.138,1.125,4.113,1.413,6.2.1.725,1.275.537,1.275-.163Z"
              transform="translate(-2355.714 -2836.706)"/>
        <path class="a"
              d="M2757.3,1156.351a90.275,90.275,0,0,0,1.325,29.95,1.336,1.336,0,0,0,1.65.925c4.2-1.412,4.575-5.837,4.737-9.713.288-6.937.138-14.787-1.9-21.475a.847.847,0,0,0-1.65.213c-.05,4.875.562,9.8.625,14.688.05,3.825,1.35,11.938-2.837,13.85l1.987.788a72.354,72.354,0,0,1-2.812-29.25c.075-.725-1.05-.7-1.137,0Z"
              transform="translate(-2434.792 -1122.756)"/>
        <path class="a" d="M2794.594,1146.3a.45.45,0,0,0,.012-.9A.45.45,0,0,0,2794.594,1146.3Z" transform="translate(-2467.636 -1113.955)"/>
        <path class="a" d="M2819.308,1191.972c.612,12.9.038,26.512-5.288,38.45-.5,1.125,1.063,2.038,1.688.95,6.925-12.262,10.025-26.113,4.875-39.562C2820.345,1191.185,2819.27,1191.21,2819.308,1191.972Z" transform="translate(-2484.938 -1154.177)"/>
        <path class="a" d="M5956.593,1051.189a228.512,228.512,0,0,0-.125,25.837.838.838,0,0,0,1.675,0,225.342,225.342,0,0,0-.125-25.837.725.725,0,0,0-1.437,0Z" transform="translate(-5234.397 -1030.969)"/>
        <path class="a"
              d="M6482.952,1008.562c-3.7,2.6-2.125,9.688-2.162,13.712-.05,6.6-.175,13.237.087,19.838.5,12.937.975,25.85,1.025,38.8.112,26.15.663,52.312,1.038,78.475a.732.732,0,0,0,1.462,0c.288-26.15.75-52.325.763-78.462.013-12.95.437-25.863.9-38.8.225-6.312.088-12.662.025-18.975-.037-3.45-.025-6.912-.212-10.35-.125-2.175-.187-3.025-2-4.237a.913.913,0,0,0-.925.013Z"
              transform="translate(-5693.182 -994.117)"/>
        <path class="a"
              d="M6463.434,2484.455c-1.963,13.337-1.963,27-2.013,40.45q-.037,9.9.05,19.8c.063,6.375-.337,13.012.962,19.287a1.345,1.345,0,0,0,2.563-.012c1.037-6.325.462-12.888.412-19.275q-.075-9.9-.025-19.8c.075-13.463.612-27.038-.512-40.462a.72.72,0,0,0-1.438,0Z"
              transform="translate(-5676.489 -2285.022)"/>
        <path class="a" d="M6531.406,2919.616c-1.337-7.637-.962-15.5-.925-23.225,0-1.037-1.725-1.325-1.888-.25-1.263,8.15-.075,15.813,1.55,23.8.162.813,1.4.462,1.262-.337Z" transform="translate(-5734.811 -2645.258)"/>
        <path class="a" d="M7094.809,1037.233c-2.512,8.062-2.275,17.237-1.55,25.587.788,9.038,1.113,18.05,1.475,27.113a.545.545,0,0,0,1.088,0c.063-9.075.262-18.075,1.138-27.113.813-8.337,1.35-17.437-.788-25.6a.716.716,0,0,0-1.363,0Z"
              transform="translate(-6228.926 -1018.863)"/>
        <path class="a" d="M7077.661,1810.88c-.588,29.238-1.3,58.325,1.55,87.5a1,1,0,0,0,2,0c1.662-29.275-.263-58.312-2.038-87.5A.757.757,0,0,0,7077.661,1810.88Z" transform="translate(-6215.241 -1695.622)"/>
        <path class="a"
              d="M7065.966,2645.125c-.112,11.537-.9,23.063-1.1,34.6q-.138,8.213-.363,16.438c-.15,6-.788,12.175-.15,18.15.188,1.75,2.9,2.437,3.35.438,2.413-10.9,1.813-23.038,1.825-34.15.013-11.875-1.162-23.65-2.212-35.462-.075-.837-1.35-.863-1.35,0Z"
              transform="translate(-6203.821 -2425.667)"/>
        <path class="a"
              d="M873.672,1079.562c-1.8,7.85-1.812,16.263-2.125,24.288q-.488,12.413-.488,24.825c-.013,16.2-.55,33.275,2.275,49.275.388,2.175,3.638,1.513,3.763-.488.987-16.125-.625-32.612-.713-48.775q-.063-11.987.087-23.975c.088-8.175.813-16.675-.175-24.813-.162-1.35-2.25-1.9-2.6-.338Z"
              transform="translate(-633.87 -1052.374)"/>
        <path class="a"
              d="M888.921,2257.418c-1.25,21.175-2.412,42.263-1.687,63.488q.538,15.438,1.562,30.85c.7,10.388,1.263,21.063,3.413,31.288.438,2.1,3.737,1.575,3.763-.487.1-10.238-1.113-20.575-1.812-30.788q-1.088-15.838-1.65-31.712c-.737-20.875-1.962-41.75-1.962-62.638A.814.814,0,0,0,888.921,2257.418Z"
              transform="translate(-646.258 -2086.298)"/>
        <path class="a" d="M1638.2,1290.316c.663,9.387.675,19.025,1.725,28.363.175,1.563,2.775,2.262,3.063.4,1.412-9.325-.275-20.05-3.175-28.962-.263-.812-1.663-.725-1.6.213Z" transform="translate(-1383.671 -1232.994)"/>
        <path class="a"
              d="M664.218,3162.419a22.366,22.366,0,0,1-10.575-11.062l-.287,2.175c2.963-3.65,8.588,4.025,11.287,5.462a1.9,1.9,0,0,0,2.588-2.55,23.326,23.326,0,0,1-2.737-6.512c-.463-1.975-1.687-7.788,1.9-5.187,1.437,1.037,2.5,3.975,3.4,5.487l3.675,6.175a1.983,1.983,0,0,0,3.638-.975c.25-3.387-.862-6.175-2.075-9.287s-2.725-7.65.888-9.538l-2.888-.725a104.743,104.743,0,0,1,9.45,23.35c.625,2.325,4.138,1.8,4.225-.55a50.07,50.07,0,0,1,3.263-16l-3.6.962a9.833,9.833,0,0,1,3.75,7.113c.175,2.225,3.7,3.012,4.188.538q-.313-1.638,1.15-1.463,1.7-.738.612,1.262c.1,1.288-.612,3.038-.863,4.275a2.083,2.083,0,0,0,3.05,2.288c2.95-1.788,8.237,1.3,11.313,1.9a27.81,27.81,0,0,0,9.5.138,1.369,1.369,0,0,0,.025-2.638,97.16,97.16,0,0,1-14.25-3.1c-3.025-.975-5.837-1.537-8.675.188l3.05,2.288c.738-3.525,3.913-10.925-.9-12.975s-7.388,3.05-8.138,6.763l4.188.538a14.129,14.129,0,0,0-4.963-10.138,2.213,2.213,0,0,0-3.6.963,52.3,52.3,0,0,0-3.412,17.087l4.225-.55a109.575,109.575,0,0,0-9.95-24.35,2.17,2.17,0,0,0-2.888-.725c-9.3,4.962-.175,15.5-.6,22.375l3.638-.975c-2.412-4-4.513-8.663-7.5-12.25-1.512-1.812-3.925-3.65-6.412-2.725-6.638,2.45-1.2,15.125,1.025,18.862l2.587-2.55c-4.75-2.488-10.612-11.425-16.075-4.4a1.754,1.754,0,0,0,0,1.8,20.86,20.86,0,0,0,12.887,11.212,1.1,1.1,0,0,0,.863-2Z"
              transform="translate(-439.042 -2852.912)"/>
        <path class="a" d="M1612.619,3605.65a.675.675,0,0,0,.012-1.35A.675.675,0,0,0,1612.619,3605.65Z" transform="translate(-1433.211 -3265.493)"/>
        <path class="a"
              d="M6990.559,1120.111c-.325,12.688.275,25.313.85,38,.275,6.138.763,12.275.95,18.425.175,5.85-.85,11.337-1.412,17.113-.112,1.1,1.55,1.425,2.037.537,2.612-4.812,2.712-10.687,2.737-16.062.025-6.375-.4-12.775-.75-19.137-.712-13.063-1.4-26.063-3.037-39.038-.1-.787-1.362-.562-1.388.188Z"
              transform="translate(-6139.413 -1091.254)"/>
        <path class="a"
              d="M6915.362,1458.3c-.375,10.85.712,21.85,1.3,32.688s1.05,21.813,1.5,32.725c.438,10.625.825,21.25.975,31.875s-.85,21.7.688,32.162a1.067,1.067,0,0,0,2.038-.012c1.5-10.162.425-21.038.225-31.3-.213-11.2-.4-22.4-.75-33.6-.35-10.913-.9-21.825-1.513-32.712-.6-10.638-.987-21.525-2.937-32.025-.163-.863-1.488-.625-1.513.2Z"
              transform="translate(-6073.629 -1387.089)"/>
        <path class="a"
              d="M6851.138,2510.89c-.025.125-.55.637-.813,1.012a14.688,14.688,0,0,1-1.425,2.238c-1.413,1.425-3.675,2.438-5.675,1.775a5.332,5.332,0,0,1-3.337-4.037c-.237-1.125.038-5.463,1.987-3.525.875.875,2.138-.237,1.663-1.262-1.413-3.1-5.138-2.937-6.575.05a9.257,9.257,0,0,0,1.087,9.337c4.4,5.875,14.063,2.938,14.938-4.2a1.291,1.291,0,0,0-.675-1.162l.1-.075c-.075-.675-1.1-.925-1.275-.162Z"
              transform="translate(-6004.393 -2303.458)"/>
        <path class="a" d="M6929.746,2685.418a113.99,113.99,0,0,0,.3,21.712,1.127,1.127,0,0,0,2.25,0,114.983,114.983,0,0,0-1.163-21.9C6931.008,2684.418,6929.809,2684.694,6929.746,2685.418Z" transform="translate(-6085.951 -2460.873)"/>
        <path class="a"
              d="M237.259,3311.755c-2.837-6.525-9.025-9.975-16.1-9.625a2.133,2.133,0,0,0-2.1,2.025l-.425,6.975,3.15-1.775c-5.162-2.1-11.537-6.375-17.15-4.138-3.462,1.388-6.575,3.313-10.187,4.438s-7.525,1.837-11.262,2.837a1.554,1.554,0,0,0,.375,3.05c6.137.362,12.013-1.463,17.6-3.925,3.2-1.412,5.55-3.363,9.137-2.438,3.313.85,6.675,2.675,9.85,3.95,1.3.525,2.588-.775,2.663-1.975l.4-6.975-2.1,2.025a18.616,18.616,0,0,1,15.025,6.425c.575.65,1.425-.187,1.125-.863Z"
              transform="translate(-29.409 -3001.073)"/>
        <g transform="translate(335.357 70.464) rotate(9)">
          <path class="a"
                d="M1402.051,2092.342c-5.04-2.926-11.3-2.092-16.252.606-9.166,5.017-13.989,16.172-14.286,26.252-.308,10.423,5.738,21.464,16.412,24.081a16.29,16.29,0,0,0,14.252-2.789c3.531-2.845,6.377-7.771,4.823-12.366a3.684,3.684,0,0,0-6.081-1.611c-2.788,2.64-5.92,5.92-10.229,4.617-4.731-1.44-6.72-6.743-6.7-11.246a20.863,20.863,0,0,1,4.983-13.658,9.454,9.454,0,0,1,5.154-3.2c2.812-.435,2.926,1.817,4.263,3.771,2.514,3.657,9.212,3.737,10.252-1.337C1409.731,2100.114,1406.7,2095.028,1402.051,2092.342Z"
                transform="translate(-1371.501 -2051.225)"/>
          <path class="a"
                d="M1723.3,2146.2a2.691,2.691,0,0,0-.857.194c-9.543,3.886-11.566,19.052-7.177,27.361,4.938,9.338,16.344,11.555,24.172,4.354,6.914-6.366,10.023-18.709,4.515-26.835C1739.9,2145.286,1729.3,2141.229,1723.3,2146.2Zm8.549,24.1c-3.623,2.434-6.537-.572-7.177-4.286-.7-4.034,1.337-7.646,2.332-11.418,3.052-.148,6.206-.628,8.286,2.309,2.7,3.818.172,10.972-3.44,13.406Z"
                transform="translate(-1674.022 -2098.581)"/>
          <path class="a"
                d="M2082.814,2107.78c-.514-4.1-5.875-6.423-8.309-2.251-3.326,5.692-6.755,11.418-10.48,16.915a158.538,158.538,0,0,1-8.549-15.543c-2.594-5.429-11.212-2.652-11.086,3.006.263,12.492-.274,25.532.971,37.635.229,2.195,1.749,4.32,4.218,4.218,7.783-.332,6.937-11.921,7.12-17.4q.068-2.343.1-4.686,1.829,2.091,3.829,4.091a4.624,4.624,0,0,0,7.177-.926c1.9-3.04,3.84-6.046,5.771-9.052.023,6.515.183,13.029.412,19.589.251,7.429,11.9,7.429,11.555,0C2085.008,2131.438,2084.3,2119.655,2082.814,2107.78Z"
                transform="translate(-1967.484 -2062.584)"/>
          <path class="a"
                d="M2473.344,2167.687c-.183-2.994-.925-15.3-6.629-13.372-5.36,1.806-5.154,10.343-5.3,14.937-.194,5.978-1.451,14.583,1.566,19.9a5.216,5.216,0,0,0,8.926,0c1.886-3.371,1.554-6.777,1.566-10.469S2473.572,2171.344,2473.344,2167.687Z"
                transform="translate(-2336.471 -2107.564)"/>
          <path class="a"
                d="M2452.24,1956.422a6.62,6.62,0,0,0,5.017-.652,8.289,8.289,0,0,0,2.686-2.686,7.52,7.52,0,0,0,1.017-3.76,7.349,7.349,0,0,0-3.68-6.286,6.9,6.9,0,0,0-1.76-.72,10.681,10.681,0,0,0-1.9-.251,6.662,6.662,0,0,0-5.771,3.258,6.411,6.411,0,0,0-.286,5.851,4.85,4.85,0,0,0,.766,2.263A6.683,6.683,0,0,0,2452.24,1956.422Z"
                transform="translate(-2324.076 -1919.751)"/>
          <path class="a"
                d="M2665.709,2070.579a78.386,78.386,0,0,1,1.783,18.572c-4.549-6.137-9.12-12.252-13.361-18.606-3.155-4.72-10.675-3.017-10.8,2.926-.126,5.68.114,11.372.343,17.041.206,5.383.537,10.812,2.845,15.738,1.063,2.274,5.109,2.377,6.138,0,2.126-4.937,2.377-10.195,2.434-15.509,4.081,5.532,8.092,11.12,12.309,16.538,2.388,3.074,8.446,1.417,9.04-2.389a97.682,97.682,0,0,0-.96-37.018C2674.03,2061.527,2664.338,2064.224,2665.709,2070.579Z"
                transform="translate(-2497.944 -2027.977)"/>
          <path class="a"
                d="M2996.665,2030.933c-5.749,1.269-4.915,9.155,0,10.835a11.73,11.73,0,0,0,3.154.514,12.357,12.357,0,0,1-2.274,2.9c-5.635,5.166-9.521-2.48-10.275-7.326-.857-5.532-.308-13.2,4.137-17.212a7.962,7.962,0,0,1,5.737-2.149,18.137,18.137,0,0,1,3.531.949c.171.046,1.029.263,1.52.377l1.428.549c3.451,1.04,6.355-2.331,5.6-5.6-3.04-13.235-21.887-8.743-28.149-1.1-7.726,9.429-8.423,24.835-2.881,35.487a17.936,17.936,0,0,0,14.618,9.84c6.731.48,12.332-3.337,16.126-8.572,3.1-4.274,6.343-11.509,3.074-16.549C3009,2029.219,3001.4,2029.881,2996.665,2030.933Z"
                transform="translate(-2791.355 -1976.685)"/>
          <path class="a"
                d="M3554.247,1982.452a34.561,34.561,0,0,0-6.949.537c-1.726.229-4.72,1.04-6.274-.172-3.692-2.891,1.771-6.892,4.48-7.52,4.068-.948,7.006,1.783,10.857,1.852a3.439,3.439,0,0,0,2.96-1.7c2.389-4.1-1.04-8.846-4.743-10.663-4.445-2.172-9.966-1.977-14.549-.366-9.817,3.44-16.126,15.258-9.875,24.63a15.882,15.882,0,0,0,13.338,6.88c2.08.023,10.594-2.16,11.691-.354,1.566,2.606-4.24,6.572-5.966,7.257-4.194,1.68-7.109.274-10.572-2.115-4.572-3.154-9.326,2.035-8.526,6.549,1.943,10.915,18.012,10.423,25.567,6.8,8.618-4.126,15.806-15.109,10.857-24.561C3564.145,1984.91,3559.185,1982.8,3554.247,1982.452Z"
                transform="translate(-3281.232 -1938.456)"/>
          <path class="a"
                d="M3917.348,1992.045l-.069.023a3.636,3.636,0,0,0-3.554-2.057c-10.309.777-14.207,15.338-13.875,23.852.389,9.841,5.794,21.681,17.155,21.807,11.12.126,17.807-12.869,17.566-22.584C3934.388,2004.891,3928.125,1988.673,3917.348,1992.045Zm-1.372,31.315c-4.114-1.417-4.514-9.2-4.229-12.595a28.135,28.135,0,0,1,3.326-10.274,5.3,5.3,0,0,0,1.063.857c3.863,2.377,6.068,7.235,6.171,11.726C3922.365,2015.92,3920.376,2024.869,3915.976,2023.36Z"
                transform="translate(-3610.868 -1962.209)"/>
          <path class="a"
                d="M4246.135,1983.6l-.059-.137c-1.908-4.229-7.76-1.806-10.262.3a29.315,29.315,0,0,0-8.938,13.189c-2.96,9.578,1.658,23.841,12.138,26.812,11.074,3.132,19.783-8.869,21.943-18.332,1.177-5.166.789-10.846-2.023-15.452C4256.4,1985.848,4251.026,1981.459,4246.135,1983.6Zm2.674,20.6c-1.166,3.269-4.926,11.12-8.583,6.309s-3.417-10.332-.251-15.349c.926-1.474,1.955-2.88,2.959-4.3l.172.274c1.611,2.343,4.469,2.972,5.749,5.417s.8,5.28-.045,7.657Z"
                transform="translate(-3899.757 -1954.355)"/>
          <path class="a"
                d="M4591.771,1900.533c-.48-3.154-.674-5.9-3.634-7.726a5.5,5.5,0,0,0-6.5.834l-.264.229a5.027,5.027,0,0,0-1.313,4.949l.1.309a4.929,4.929,0,0,0,.548,1.166c1.269,4.515,1.28,9.909,1.612,14.446q.171,2.366.274,4.743c-1.486-1.554-2.961-3.132-4.355-4.777-4.251-4.983-8.287-10.149-12.32-15.3-3.841-4.914-10.229.651-9.4,5.463,1.028,5.932,1.624,11.863,2.184,17.852.48,5.189-.321,12.229,2.8,16.618,1.669,2.354,4.5,2.217,6.195,0,3.2-4.206,2.56-11.417,2.206-16.778a89.861,89.861,0,0,0,15.155,14.983c3.474,2.594,8.092-.96,8.183-4.7.173-7.3.287-14.583-.263-21.864C4592.731,1907.494,4592.3,1904.008,4591.771,1900.533Z"
                transform="translate(-4192.443 -1875.486)"/>
          <path class="a"
                d="M5045.963,2161.212a4.6,4.6,0,0,0-.4-.914l-1.028-1.337a4.954,4.954,0,0,0-2.126-1.372,3.291,3.291,0,0,0-1.669-.446,5,5,0,0,0-2.628.114l-1.577.663-1.338,1.028a5.148,5.148,0,0,0-.468.5l-.206.16c-.207.244-.4.5-.583.754a3.308,3.308,0,0,0-.845,1.463,7.838,7.838,0,0,0-.343.823,16.6,16.6,0,0,0-.251,1.817,6.785,6.785,0,0,0,.125.915,3.3,3.3,0,0,0,.446,1.669,4.618,4.618,0,0,0,.4.9,6.354,6.354,0,0,0,6.572,3.143,4.9,4.9,0,0,0,2.457-.777,8.407,8.407,0,0,0,1.372-1.1,4.671,4.671,0,0,0,1.715-1.874,7.753,7.753,0,0,0,.982-3.5A5.7,5.7,0,0,0,5045.963,2161.212Z"
                transform="translate(-4614.085 -2110.141)"/>
          <path class="a"
                d="M5012.588,1784.028a3.857,3.857,0,0,0,4.64-.594c2.651-3.006,2.333-6.777,2.274-10.629a87.918,87.918,0,0,0-1.154-12.835c-.687-4.183-4.789-17.235-11.371-11.84-4.458,3.646-1.486,12.549-.767,17.315C5007.079,1771.228,5007.467,1780.485,5012.588,1784.028Z"
                transform="translate(-4589.35 -1746.844)"/>
        </g>
      </g>
    </g>
    <g transform="translate(-1440.499 -222.73)">
      <g transform="translate(-1420.771 -1092.901)">
        <g transform="translate(69.687 26.108)">
          <path class="b"
                d="M1254.5,4288.561c3.434.67,7.1,1.5,8.743,3.095,2.357,2.282-.718,5.167-5.276,6.461s-41.568,6.8-46.864,6.88c-65.23,1.057-99.383-3.285-164.017-7.653-3.982-.271-8.161-.6-11.31-1.808-35.649-13.68,80.238-18.583,94.148-18.129C1170.614,4278.741,1216.74,4281.212,1254.5,4288.561Z"
                transform="translate(-1029 -4013.81)"/>
          <path class="c"
                d="M1816.132,3203.731c4.9-1.876,9.786-3.792,14.736-5.54l-1.869-3.169c-4.463,3.921-8.879,7.9-13.308,11.858-1.93,1.72.548,4.341,2.621,3.312,5.784-2.878,11.526-5.844,17.283-8.77l-2.634-3.332-16.436,12.942c-1.693,1.334.142,4.266,2.093,3.555a161.881,161.881,0,0,0,27.082-12.624l-2.188-3.67-24.922,16.247a2.137,2.137,0,0,0,2.187,3.67l40.356-18.7-2.188-3.67q-21.807,14.364-43.6,28.748a2.117,2.117,0,0,0,2.167,3.637l42.3-22.965-2.905-2.824c-3.6,6.488-11.445,9.847-17.723,13.165s-13.091,6.637-17.6,12.285a2.145,2.145,0,0,0,2.634,3.325c11.946-5.892,23.92-11.75,35.744-17.872l-2.425-3.061c-6.278,5.987-12.7,11.824-19.064,17.73-1.585,1.469.454,3.765,2.228,2.817q9.59-5.12,19.233-10.158l-2.689-2.011a33.672,33.672,0,0,1-6.44,9.447c-1.327,1.463.5,4.138,2.235,2.817.474-.359,7.294-4.165,7.24-1.862-.047,1.923,2.7,1.781,2.946,0,.3-2.167-1.815-3.312-3.684-3.711-3.068-.657-5.892.759-8.357,2.465l2.235,2.817a34.652,34.652,0,0,0,7.368-11.052c.677-1.591-1.456-2.668-2.689-2.011q-9.61,5.093-19.24,10.145l2.228,2.817c6.42-5.844,12.793-11.757,19.287-17.513,1.815-1.6-.515-3.962-2.424-3.061-12.055,5.689-23.981,11.662-35.913,17.581l2.635,3.325c9.346-11.75,28.443-12.813,35.92-26.371a2.106,2.106,0,0,0-2.905-2.824l-42.333,22.9,2.167,3.636q21.813-14.35,43.62-28.714a2.137,2.137,0,0,0-2.187-3.671l-40.356,18.7,2.187,3.67,24.922-16.247c2.343-1.531.23-5.1-2.187-3.67a155.889,155.889,0,0,1-26,12.176l2.093,3.556,16.436-12.942c2.039-1.605-.576-4.375-2.634-3.332-5.756,2.925-11.533,5.817-17.269,8.79l2.621,3.312c4.334-4.05,8.689-8.079,13-12.163,1.327-1.26-.041-3.894-1.869-3.17-5.045,2-10.036,4.1-14.865,6.59-1.449.745-.447,3.23,1.111,2.628Z"
                transform="translate(-1761.141 -3004.146)"/>
          <path class="a"
                d="M1289.265,1596.863c-.63,9.481.67,19.1,5.492,27.441s12.576,14.5,20.865,19.01c15.515,8.438,34.728,12.136,51.869,6.711,18.63-5.9,31.139-23.723,37.654-41.392,6.657-18.048,5.1-38.873-1.95-56.63-3.623-9.129-9.718-15.305-19.071-18.475-10.463-3.549-22.816-2.966-32.5,2.526-2.33,1.321-.786,5.35,1.842,4.361,15.7-5.912,36.455-5.357,43.993,12.251,6.406,14.967,8.255,33.489,3.779,49.153-2.492,8.723-6.84,16.565-11.9,24.035-4.917,7.253-10.66,13.5-18.685,17.283-14.317,6.738-31.83,4.856-46.031-1.212-9.122-3.894-18.2-9.589-23.9-17.892-5.526-8.039-6.921-17.608-6.312-27.157.21-3.257-4.917-3.21-5.133-.007Z"
                transform="translate(-1271.501 -1453.704)"/>
          <path class="a"
                d="M1424.159,1027.252c-16.016-10.4-37.241,3.9-47.23,16.572-6.149,7.8-10.382,16.89-14.838,25.708-5.161,10.213-10.138,20.547-13.578,31.484-.989,3.142,3.962,4.354,4.937,1.293a187.3,187.3,0,0,1,11.75-27.34c4.03-7.957,7.741-16.233,12.522-23.777,8.479-13.4,28.085-29.757,44.954-21.434a1.458,1.458,0,0,0,1.49-2.506Z"
                transform="translate(-1326.753 -980.449)"/>
          <path class="a" d="M1801.453,3188.712c-.6,5.594-.366,11.249-.826,16.856s-1.686,11.195-1.971,16.809c-.129,2.485,3.63,2.837,4.287.555,1.585-5.546,1.835-11.628,2.181-17.357s.725-11.607-.149-17.323c-.318-2.1-3.325-1.341-3.515.46Z"
                transform="translate(-1746.53 -2997.261)"/>
          <path class="a" d="M2517.482,3168.51c2.039-5.147.968-11.58,1.029-17.052.068-5.722,1.023-11.75.2-17.418-.332-2.269-3.623-1.8-4.212.014-1.829,5.607-1.4,12.4-1.273,18.238.115,5.269-.136,11.851,2.756,16.416a.839.839,0,0,0,1.5-.2Z"
                transform="translate(-2412.587 -2946.476)"/>
          <path class="a" d="M2014.889,1261.9c13.253-8.255,28.139-15.19,43.993-11.377,3.583.86,5.181-4.47,1.571-5.5-17.344-4.944-32.73,6.562-46.437,15.4-.941.609-.074,2.066.874,1.469Z" transform="translate(-1946.929 -1185.707)"/>
          <path class="a"
                d="M1910.229,2836.507c11.3-1.476,1.233,18.305-.3,22.5-2.621,7.165-4.835,14.472-7.1,21.753-1.131,3.644-2.276,7.287-3.481,10.9-.6,1.808-1.219,3.616-1.862,5.411-.278.765-.542,1.544-.84,2.3-.874,2.228-.86,2.77-3.149,2.993-7.951.785-15.922,1.422-23.892,1.964-12.759.874-25.518,1.748-38.3.935-8.675-.549-17.1-2.756-25.525-4.788-12.021-2.905-23.926-5.926-36.211-7.6-2.655-.359-3.894,3.677-1.158,4.05,22.972,3.122,44.981,11.865,68.237,12.7,16.05.583,32.3-1.07,48.266-2.512,3.63-.325,8.066-.081,11.547-1.185,2.783-.88,3.406-3.867,4.321-6.325,3.217-8.7,5.838-17.594,8.648-26.425,1.49-4.673,3.02-9.332,4.72-13.931s4.348-9.346,5.33-14.249c1.26-6.258-2.465-13.6-9.691-12.129-2.025.413-1.659,3.88.447,3.6Z"
                transform="translate(-1716.902 -2666.965)"/>
          <path class="a"
                d="M2640.374,2907.054q4.158-14.947,8.3-29.9l4.117-14.96c1.178-4.28,2.066-8.96,4.267-12.867,2.905-5.16,7.355-5.763,12.874-6.149q7.727-.535,15.454-1.022c10.592-.664,21.218-1.03,31.789-1.876,2.553-.2,2.716-4.05.054-3.989-12.034.271-24.082,1.273-36.083,2.1-8.3.569-20.08-.921-25.89,6.353a28.353,28.353,0,0,0-4.531,9.739c-1.639,5.52-3.061,11.114-4.578,16.667q-4.781,17.459-9.481,34.938c-.644,2.377,3.054,3.3,3.7.975Z"
                transform="translate(-2527.724 -2670.316)"/>
          <path class="a"
                d="M1282.315,3703.314c7.185,1.429,41.3,4.206,33.55,17.791-5.167,9.055-20.026,10.057-29.134,11.053q-16.233,1.781-32.554,2.641a604.466,604.466,0,0,1-65.339,0c-19.822-1.077-40.451-2.194-59.88-6.528-5.14-1.145-32.08-9.6-19.132-17.134,5.161-3,11.8-3.3,17.621-3.467,5.919-.169,11.858-.061,17.784-.061,2.634,0,2.716-4.036.054-4.036-11.344.007-24.543-1.558-35.27,3.027-8.323,3.563-10.368,11.94-2.485,17.534,8,5.682,18.319,7.883,27.841,9.407,11.418,1.829,23.026,2.9,34.545,3.887a609.9,609.9,0,0,0,80.773,1.531c13.572-.644,27.184-1.612,40.661-3.325,9.5-1.212,22.078-3.23,27.766-12.007,6.169-9.515-3.637-16.3-11.614-19.247-7.781-2.878-16.071-3.129-24.2-4.477-2.228-.372-3.3,2.967-.975,3.427Z"
                transform="translate(-1097.594 -3475.415)"/>
          <path class="a" d="M1851.651,3661.246c18.63-.515,37.423-.989,56-2.533,2.7-.223,2.878-4.266.054-4.219-18.651.3-37.4,1.707-56.007,3.048C1849.314,3657.711,1849.179,3661.314,1851.651,3661.246Z" transform="translate(-1794.263 -3433.11)"/>
          <path class="a"
                d="M2728.2,3889.305c1.971,7.544-28.417,7.666-33.252,7.842q-8.018.292-16.05-.013-4.219-.163-8.432-.515c-3.19-.264-5.4-.61-3.636-4.03a1.846,1.846,0,0,0-3.217-1.808c-2.228,3.264-2.39,8.188,2.079,9.346,4.05,1.043,8.987.779,13.158.941q7.6.3,15.2.054a223.586,223.586,0,0,0,27.441-2.587c5.323-.833,12.177-3.434,10.247-10.172-.636-2.215-4.118-1.287-3.535.948Z"
                transform="translate(-2551.492 -3649.961)"/>
          <path class="a"
                d="M1801.774,3745.048c-20.276-4.835-40.519-9.6-60.564-15.339l1.429,2.479c.352-1.714.718-3.427,1-5.154.393-2.438-3.163-3.453-3.806-1-.447,1.693-.8,3.4-1.172,5.113a2.045,2.045,0,0,0,1.429,2.479c20.005,5.7,40.254,11,60.713,14.8,2.194.406,3.23-2.831.962-3.372Z"
                transform="translate(-1690.546 -3498.49)"/>
          <path class="a"
                d="M3216.08,3245.146a36.023,36.023,0,0,0-7.632,13.1c-.643,1.971,2.032,3.271,3.393,1.9a53.175,53.175,0,0,1,13.247-9.6l-2.675-2.608c-2.689,5.154-5.54,10.226-8.323,15.333a1.949,1.949,0,0,0,3.088,2.3c3.968-3.806,7.944-7.422,13.016-9.7l-2.918-2.181a103.082,103.082,0,0,1-7.782,15.867,1.945,1.945,0,0,0,1.179,2.838c1.95.738,3.271.3,4.794-1.029,1.923-1.679-.887-4.28-2.783-2.7l-.941-.034,1.178,2.838a106.792,106.792,0,0,0,8.195-16.781c.7-1.808-1.551-2.79-2.919-2.181-5.371,2.4-9.617,6.312-13.8,10.362l3.088,2.3c2.763-5.12,5.465-10.274,8.316-15.339,1.022-1.808-1-3.4-2.682-2.608a50.249,50.249,0,0,0-14.154,10.131l3.393,1.9a34.112,34.112,0,0,1,6.386-11.54c1.558-1.842-1.05-4.4-2.675-2.594Z"
                transform="translate(-3060.758 -3050.905)"/>
          <path class="a" d="M2387,4251.708c-.664,3.359-1.368,7.321-.413,10.7,1,3.542,4.145,5.777,7.409,7.1,2.526,1.03,4.89-2.4,2.269-3.819-2.3-1.246-4.9-2.391-5.492-5.194-.562-2.675.122-5.6-.048-8.31-.129-1.991-3.292-2.654-3.718-.48Z"
                transform="translate(-2294.215 -3988.62)"/>
          <path class="a" d="M1989.6,4193.7c-.989,4.1-2.5,8.9-1.795,13.146.786,4.74,5.777,6.806,8.953,9.826,2.079,1.978,4.89-.948,3.149-3.122-2.479-3.095-7.233-4.389-7.531-8.723-.244-3.549,1.063-7.09.928-10.653-.074-2.052-3.2-2.593-3.718-.481Z"
                transform="translate(-1922.706 -3934.535)"/>
          <path class="a" d="M2541.5,3565.735a41.26,41.26,0,0,1,10.89,1.829c2.567.778,3.535-2.96,1.117-3.908a25.16,25.16,0,0,0-11.953-1.531c-2.282.264-2.492,3.535-.047,3.616Z" transform="translate(-2437.443 -3346.843)"/>
          <path class="a"
                d="M2741.561,2922.246c-3.61,2.343-5.418,5.8-6.786,9.8-2.072,6.048-3.759,12.251-5.587,18.374-3.786,12.677-7.666,25.335-11.364,38.04-.691,2.384,3.014,3.292,3.725.975,3.379-11,6.6-22.05,9.908-33.076,1.564-5.235,3.149-10.47,4.7-15.711,1.51-5.126,2.424-12.184,7.192-15.407,1.883-1.273.135-4.247-1.781-2.994Z"
                transform="translate(-2603.373 -2750.17)"/>
          <path class="a" d="M3887.833,4161.58c-1.958,7.489-1.009,16.829-.711,24.509.115,2.959,4.693,2.959,4.687.007-.014-4.294-.081-8.588-.061-12.881.02-3.867.42-7.835-.3-11.648C3891.1,4159.724,3888.272,4159.894,3887.833,4161.58Z"
                transform="translate(-3693.103 -3904.614)"/>
          <path class="a" d="M4030.408,4142.762a100.768,100.768,0,0,0,.149,16.612c.237,2.77,4.375,2.845,4.442.007a103.845,103.845,0,0,0-.928-17.1c-.3-2.153-3.5-1.43-3.657.48Z" transform="translate(-3826.888 -3886.635)"/>
          <path class="a" d="M1447.942,4134.242c1.226,7.68-.989,15.617.731,23.142.549,2.4,4.517,1.9,4.409-.576-.332-7.6,2.228-17.08-1.679-24C1450.313,4130.876,1447.624,4132.278,1447.942,4134.242Z" transform="translate(-1419.546 -3878.169)"/>
          <path class="a" d="M1281.395,4116.07c.508,5.3.393,10.639,1.111,15.928.345,2.553,4.51,1.875,4.51-.589,0-5.37-1.138-10.544-1.883-15.833-.291-2.065-3.935-1.592-3.738.487Z" transform="translate(-1264.295 -3861.724)"/>
          <path class="a"
                d="M1237.147,2185.137c-1.639-3.562-4.9-7.375-9.217-6.867s-6.251,4.957-7.03,8.709c-.941,4.531-.467,9.806,3.42,12.847,3.183,2.486,7.869,2.98,10.89.027,2.153-2.1-.6-5.073-3.068-3.874-5.709,2.783-7.063-5.045-6.237-8.9.427-1.984,1.28-5.059,3.806-5.242s4.632,2.716,6.2,4.226a.783.783,0,0,0,1.226-.935Z"
                transform="translate(-1207.519 -2056.817)"/>
          <path class="a" d="M2710.986,2404.539a37.372,37.372,0,0,1-1.889,8.14c-.887,2.824,3.251,3.63,4.314,1.131a22.362,22.362,0,0,0,1.551-9.265C2714.941,2401.993,2711.176,2402.074,2710.986,2404.539Z" transform="translate(-2595.201 -2266.054)"/>
          <path class="a" d="M2435.656,2340.237a72.031,72.031,0,0,0-2.98,8.648c-.826,2.891,3.542,3.894,4.416,1.158a71.042,71.042,0,0,0,2.309-8.824C2439.855,2338.713,2436.611,2338.022,2435.656,2340.237Z" transform="translate(-2337.519 -2206.614)"/>
          <path class="a"
                d="M1889.533,2316.254c-4.483,4.687-12.752,5.52-18.895,5.384a36.944,36.944,0,0,1-18.874-5.377,30.819,30.819,0,0,1-12.508-15.244c-2.472-6.684-1.544-12.1-.474-18.867.291-1.828-2.127-3.061-3.163-1.28-3.6,6.2-2.743,15.393-.481,21.908a33.676,33.676,0,0,0,14.113,17.723c10.9,6.779,34.423,10.849,41.487-3.359a.757.757,0,0,0-1.2-.894Z"
                transform="translate(-1778.719 -2151.703)"/>
          <path class="a"
                d="M1602.968,3244.885a53.586,53.586,0,0,0-9.623,7.659c-1.984,2.018-5.147,4.876-5.8,7.788-1.429,6.386,8.852,10.186,13.4,11.757,7.7,2.661,15.895,3.413,23.689,5.722a56.074,56.074,0,0,1,11.079,5.059c4.111,2.241,8.615.02,13.064,1.022,2.7.61,3.921-3.406,1.178-4.138-3.535-.942-6.765-.068-10.24-.576-3.156-.461-5.912-2.743-8.933-3.962-5.722-2.3-11.8-3.379-17.818-4.632-6.163-1.28-12.434-2.7-17.919-5.932-2.187-1.293-4.124-2.431-2.872-5.194a17.863,17.863,0,0,1,3.251-3.948,47.093,47.093,0,0,1,9.325-7.653c1.917-1.219.149-4.192-1.774-2.98Z"
                transform="translate(-1549.589 -3050.968)"/>
          <path class="a" d="M2333.854,1972.8c2.418-2.519,4.625-5.181,7.145-7.612s5.486-5.743,9.1-5.98c2.58-.169,2.722-4.057.054-4.009-4.1.068-6.969,2.567-9.684,5.418a47.6,47.6,0,0,0-8.2,11,1,1,0,0,0,1.585,1.178Z"
                transform="translate(-2243.904 -1848.89)"/>
          <path class="a" d="M1768.09,2263.492c-1.49-1.883-4.185-1.673-6.3-1-2.35.738-4.686,2.248-5.621,4.6-.589,1.47,1.294,2.35,2.418,1.808,1.666-.806,3.041-1.971,4.835-2.58,1.585-.535,3.169-.542,4.517-1.605a.986.986,0,0,0,.162-1.212Z"
                transform="translate(-1706.815 -2134.928)"/>
        </g>
      </g>
    </g>
  </g>
</svg>
