<svg xmlns="http://www.w3.org/2000/svg" width="158.704" height="64" viewBox="0 0 158.704 64"><defs><style>.a{fill:#888;fill-rule:evenodd;}.b{fill:#fff;}.c{fill:#1f1a17;}</style></defs><path class="a" d="M382.795,1136.036h25.167l1.227-1.036h17.336l.052.044,1.176.994,8.766,0h0a10.817,10.817,0,0,1,4.9,1.03,11.43,11.43,0,0,1,4.081,2.893,14.956,14.956,0,0,1,3.059,4.747,18.452,18.452,0,0,1,.816,1.855h0l3.669,10.941,4.081,15.485h0a30.545,30.545,0,0,0,1.223,3.1c.441.986.411,1.783,1.226,2.479a4.5,4.5,0,0,0,2.45.825,7.16,7.16,0,0,0,3.874,0,3.662,3.662,0,0,0,1.629-1.031h15.5l1.841,1.236h29.368a9.546,9.546,0,0,1,3.06,3.717,10.3,10.3,0,0,1,1.227,4.541,10.058,10.058,0,0,1-.411,4.335,7.593,7.593,0,0,1-1.631,3.1,7.091,7.091,0,0,1-2.245,1.86H485.269l-.689.57L483.025,1199H466.912l-2.65-1.855H455.9a12.6,12.6,0,0,1-3.878-1.242,13.159,13.159,0,0,1-3.67-2.476,14.926,14.926,0,0,1-3.266-4.126,16.681,16.681,0,0,1-1.428-3.1h0L435.7,1157.3h0a7.551,7.551,0,0,0-2.04-3.1c-1.02-1.031-3.266-.62-5.708-.825h0l-1.84,1.653H409.188l-1.637-1.241H383.527a3.519,3.519,0,0,1-2.141.774c-2.975,0-5.387-4.219-5.387-9.427h0c0-5.206,2.412-9.425,5.387-9.425a3.269,3.269,0,0,1,1.408.327Zm-6.081,9.1c0-4.516,2.09-8.177,4.673-8.177a3.178,3.178,0,0,1,2.123.893l.055.049a9.657,9.657,0,0,1,2.47,6.4c.016.274.026.55.026.832,0,4.519-2.094,8.179-4.675,8.179s-4.673-3.66-4.673-8.179Zm73.893,9.92.128.416.133.426.138.44.145.452.1.31.1.3.093.3.091.29.085.284.085.278.082.273.079.268.077.264.076.261.073.257.073.255.07.254.07.251.069.251.068.25.069.25.067.25.067.252.068.252.068.255.069.258.069.26.07.265.072.267.073.274.074.279.077.283.077.291.081.3.084.3.086.314.082.307.081.3.076.3.074.286.069.281.067.275.064.27.063.266.061.26.06.258.057.253.058.251.056.247.056.246.056.245.055.243.057.242.058.243.059.242.062.244.061.244.066.247.066.249.07.251.073.254.076.26.081.263.084.268.088.273.093.279.1.286.1.3.077.223.072.225.067.221.062.218.056.214.055.211.049.206.049.2.045.2.044.195.043.192.043.188.044.183.044.18.045.175.048.171.049.167.052.164.056.159.059.156.064.151.067.149.073.145.08.143.085.14.091.138.1.136.108.134.117.133.128.132.138.131.154.133.086.071.087.07.087.067.085.065.084.062.081.059.081.056.079.054.08.052.078.049.077.047.078.045.078.043.078.041.078.039.078.037.08.037.079.035.081.032.082.033.085.031.086.03.087.029.092.028.091.028.1.026.1.026.1.025.1.025.107.024.109.023.113.023.084.016.081.014.079.011.075.011.075.009.073.007.071.006.071,0,.069,0h.277l.07,0,.069,0,.072,0,.071,0,.073-.005.075,0,.074-.006.078-.006.078-.007.08-.006.084-.006.084-.007.088-.005.089-.007.091-.006.094-.005.1,0,.1,0,.1,0,.187,0,.18,0,.176,0,.173,0,.17,0,.167,0,.165-.005.163-.006.162-.005.159-.005.158-.006.156-.007.157-.006.155-.006.155-.007.155-.007.155-.007.156-.007.155-.007.156-.008.158-.007.035,0v-.021l-1.1-.581.477-.152.467-.271.363-.261.725.374h16.357l.99-.02.032.02.517.371.148.129.209.211.2.226.072.093h29.159l.446.517.533.7H487.085l.012.023.374.618h29.387l.642,1.22H487.8l.036.125.1.355.089.361.082.368.074.373.067.376.059.38.049.364.069.413H518.4l.115,1.219H488.5l.013.324.007.386v.384l-.006.381-.013.309-.014.3-.02.3-.023.294-.026.291-.033.287-.037.283-.039.279-.046.275-.049.272-.056.269-.059.265-.065.262-.07.259-.075.257-.08.252-.087.252-.091.248-.1.245-.1.242-.108.241-.115.239-.121.236-.125.235-.133.232-.138.231-.145.229-.15.228-.153.219h-.971l-.7.576-.8.664-.136.111,1.305-1.642.155-.2.148-.2.142-.2.136-.206.13-.205.125-.208.118-.208.112-.21.108-.211.1-.213.1-.215.092-.217.088-.218.082-.223.077-.223.071-.227.068-.231.063-.233.058-.237.054-.24.051-.245.046-.249.041-.253.038-.257.033-.262.028-.266.027-.271.021-.276.018-.282.014-.286.011-.291.006-.358v-.36l-.007-.362-.014-.36-.192-.412h-14.66v.369l0,.021.041.437.023.438,0,.436-.015.435-.036.432-.058.426-.05.282-.056.269-.06.262-.065.255-.072.246-.077.24-.082.233-.087.228-.094.222-.1.216-.1.211-.107.207-.111.2-.116.2-.119.194-.122.192-.128.188-.129.187-.134.184-.138.185-.139.183-.142.183-.146.183-.149.184-.151.185-.154.186-.158.189-.159.192-.162.195-.163.2-.166.2-1.279,1.574-.949-.783,1.283-1.562.17-.207.166-.2.162-.2.16-.191.155-.188.151-.184.148-.179.145-.178.139-.175.135-.173.131-.171.125-.17.123-.17.118-.169.114-.169.108-.17.106-.172.1-.173.1-.176.091-.178.089-.182.084-.185.08-.19.074-.2.071-.2.067-.207.063-.215.057-.221.054-.229.049-.239.043-.242.05-.37.031-.372.013-.377,0-.384-.021-.386-.013-.132-.057,0-.327.015-.322.013-.318.011-.313.009-.311.007-.309.005-.3,0-.3,0-.3,0-.3,0h-.3l-.3,0-.3,0-.294-.006-.3-.007-.3-.008-.3-.008-.3-.011-.3-.01-.3-.013-.3-.012-.3-.014-.307-.015-.308-.016-.312-.016-.315-.017-.321-.017-.323-.017-.328-.019-.331-.019-.236-.012-.231-.008-.226,0-.221,0h-.218l-.215,0-.214,0-.21,0-.209.005-.206.006-.2.006-.205.006-.2.005-.2,0-.205,0h-.2l-.2,0-.208-.006-.207-.01-.209-.014-.21-.018-.213-.023-.215-.029-.217-.036-.219-.041-.223-.048-.225-.056-.228-.062-.231-.072-.234-.079-.238-.089-.238-.1-.153-.064-.146-.062-.143-.062-.14-.061-.138-.062-.136-.062-.133-.063-.13-.063-.128-.063-.128-.065-.125-.066-.123-.066-.123-.069-.12-.071-.118-.071-.119-.076-.117-.076-.117-.079-.113-.082-.115-.084-.112-.087-.114-.09-.11-.093-.113-.1-.11-.1-.111-.1-.111-.107-.11-.111-.11-.115-.111-.118-.112-.123-.112-.127-.1-.117-.1-.116-.09-.116-.087-.115-.082-.114-.08-.114-.075-.113-.072-.113-.069-.111-.066-.111-.062-.111-.061-.111-.059-.111-.056-.11-.052-.11-.053-.11-.051-.111-.048-.111-.049-.111-.047-.111-.047-.112-.046-.113-.046-.113-.047-.115-.089-.224-.051-.126-.048-.119-.049-.122-.051-.124-.052-.126-.057-.13-.08-.189-.078-.187-.073-.184-.071-.179-.067-.178-.062-.174-.061-.172-.058-.169-.055-.167-.052-.165-.052-.163-.048-.162-.047-.16-.047-.159-.043-.16-.044-.158-.041-.158-.043-.158-.042-.159-.04-.159-.042-.16-.04-.162-.042-.162-.043-.165-.043-.167-.044-.17-.045-.172-.048-.175-.047-.179-.051-.182-.052-.187-.056-.193-.07-.243-.069-.24-.067-.233-.065-.228-.064-.223-.06-.219-.06-.214-.059-.21-.057-.207-.056-.2-.055-.2-.054-.2-.052-.2-.053-.2-.054-.2-.052-.2-.052-.2-.052-.2-.051-.2-.052-.2-.052-.2-.053-.2-.054-.2-.052-.207-.055-.211-.056-.215-.057-.218-.058-.223-.061-.229-.061-.234-.062-.239-.065-.248-.056-.209-.052-.2-.051-.2-.05-.2-.047-.19-.048-.186-.044-.182-.045-.179-.043-.177-.042-.174-.041-.171-.042-.171-.04-.168-.041-.166-.039-.167-.04-.166-.072-.3-.046-.193-.039-.167-.04-.169-.043-.171-.041-.171-.042-.175-.044-.177-.044-.181-.046-.184-.046-.188-.049-.192-.049-.2-.051-.2-.055-.207-.079-.306-.077-.3-.075-.292-.071-.285-.071-.28-.067-.273-.067-.268-.064-.263-.064-.259-.062-.255-.062-.252-.061-.249-.06-.247-.06-.244-.06-.243-.061-.243-.06-.241-.062-.242-.061-.243-.064-.243-.064-.246-.066-.248-.068-.25-.071-.254-.072-.257-.074-.262-.077-.266-.08-.272-.083-.277-.086-.284-.09-.291-.094-.3-.067-.215-.064-.212-.061-.207-.058-.2-.056-.2-.053-.194-.051-.19-.051-.186-.048-.183-.048-.179-.047-.176-.046-.174-.045-.172-.048-.169-.047-.166-.049-.166-.049-.164-.051-.163-.052-.162-.056-.161-.056-.161-.06-.161-.064-.162-.065-.163-.069-.163-.074-.165-.078-.167-.084-.17-.087-.171-.095-.175-.1-.177-.107-.185-.107-.182-.107-.18-.1-.175-.1-.173-.1-.169-.1-.165-.1-.162-.094-.158-.093-.153-.093-.15-.094-.146-.094-.142-.094-.137-.094-.135-.1-.13-.1-.126-.1-.123-.1-.119-.1-.116-.106-.113-.11-.109-.112-.106-.116-.1-.12-.1-.126-.1-.131-.1-.138-.093-.142-.092-.15-.088-.158-.086-.164-.084-.175-.083-.1-.042-.094-.042-.094-.039-.09-.038-.089-.034-.087-.034-.085-.03-.083-.029-.081-.028-.082-.025-.08-.023-.079-.023-.079-.021-.079-.019-.077-.017-.078-.017-.079-.015-.079-.013-.081-.012-.081-.011-.082-.01-.084-.008-.084-.008-.088-.006-.09-.006-.09,0-.094,0-.1,0h-.306l-.129,0-2.461-.121.017.348.009.414v.41l-.011.364-.018.358-.025.354-.031.35-.038.347-.045.341-.052.338-.058.333-.064.329-.07.325-.077.32-.082.316-.089.312-.095.308-.1.3-.105.3-.11.3-.117.291-.121.285-.125.281-.132.277-.135.271-.141.267-.145.263-.161.278-.217-.007-.462-.023-.412-.029-.843.757.155-.225.156-.215.152-.219.149-.223.145-.228.139-.232.138-.237.132-.24.13-.245.125-.249.121-.254.115-.258.112-.262.107-.266.1-.27.1-.274.092-.279.086-.284.082-.288.076-.292.07-.3.066-.3.059-.3.054-.309.048-.314.043-.317.035-.321.029-.325.023-.329.016-.334.009-.337,0-.378-.008-.381-.019-.383-.005-.068-.04,0v-.492l-.014-.152H415.1l.011.047v.123l.054.3.062.462.039.467.013.469-.009.461-.029.45-.046.44-.062.431-.08.42-.094.41-.108.4-.122.388-.134.376-.144.365-.155.354-.166.341-.172.329-.182.316-.186.3-.2.29-.2.279-.2.265-.205.252-.21.237-.21.225-.211.21-.211.2-.212.182-.21.168-.208.154-.206.139-.2.124-.2.109-.2.093-.2.079-.787.245-1.087-.918,1.47-.478.119-.047.133-.063.144-.077.154-.094.162-.108.167-.124.174-.139.177-.152.18-.168.181-.181.183-.194.182-.208.18-.22.179-.232.174-.245.171-.258.166-.268.161-.281.153-.291.146-.3.138-.313.128-.323.119-.334.107-.343.1-.354.085-.362.069-.372.056-.382.042-.391.026-.4.007-.406-.01-.406-.035-.4-.03-.233H386.05l-.014-.3-.031-.42-.056-.5h27.78l-.039-.141-.125-.389-.139-.385-.151-.377-.163-.372-.175-.364-.181-.355-.189-.345-.2-.335-.164-.264H385.041l-.211-.431-.206-.364-.179-.283-.1-.141h27.014l-.2-.254-.192-.237-.155-.184H383.806l-.273-.27-.268-.226-.374-.256-.41-.208-.355-.128-.4-.075,27.522-.057-.163-.205-.355-.216.866-.769.648.251.165.089.1.068h16.337l-.031-.025L425.182,1135h1.342l1.228,1.039.689,0,.077.1.179.249.173.264.17.279.02.034h5l.157,0,.147,0,.145,0,.141.005.138.006.137.006.134.007.134.009.13.008.128.01.128.012.126.011.126.013.125.015.125.016.125.017.124.018.124.02.125.022.125.023.127.025.126.026.128.028.129.03.129.032.133.032.133.035.136.037.14.04.14.04.144.043.146.045.15.048.146.046.144.046.14.047.137.046.136.047.133.047.129.047.129.048.125.049.125.048.123.05.123.051.121.052.12.054.12.054.119.057.118.059.119.059.117.063.119.064.118.067.118.068.12.069.12.073.12.076.123.078.123.081.126.083.126.086.128.09.131.092.179.129.175.128.169.129.165.128.159.129.155.128.152.128.147.13.143.13.14.131.134.132.132.133.129.135.126.136.123.138.12.141.118.143.113.145.114.147.11.15.11.152.107.155.107.157.105.162.1.165.1.168.1.173.1.176.1.181.1.184.1.189.106.195.245.462.233.448.221.437.21.425.2.415.191.4.181.4.173.388.163.381.156.375.15.369.144.365.137.361.133.358.127.355.124.354.121.354.118.355.116.354.115.357.113.361.113.364.114.369.116.374.115.381.118.389.121.4.125.406ZM438.572,1139.7l.145.062.143.063.138.062.136.064.133.063.129.064.128.064.125.066.123.067.12.067.119.069.116.069.113.072.114.073.11.076.109.076.11.079.108.081.105.082.105.085.1.087.105.089.1.093.1.094.1.1.1.1.1.1.1.105.105.109.1.111.107.116.108.121.144.165.138.166.128.165.122.165.116.165.109.164.1.164.1.163.093.164.086.162.081.163.077.162.073.163.07.162.065.161.064.162.062.162.058.163.059.163.057.164.057.163.057.165.055.165.057.167.059.169.059.169.062.172.062.174.067.176.069.178.073.181.077.185.1.232.1.229.094.224.091.219.089.214.086.211.085.207.082.2.079.2.077.2.077.2.075.195.073.193.073.192.072.191.07.191.069.191.071.192.069.193.069.194.068.2.069.2.069.2.069.2.071.207.072.211.071.215.074.22.075.225.075.23.077.237.08.243.077.237.074.232.072.226.069.22.066.217.066.211.062.209.061.2.059.2.059.2.056.2.056.195.053.192.054.193.053.191.051.191.051.19.051.192.049.193.051.193.05.2.052.2.051.2.052.2.052.206.054.209.054.213.056.217.056.222.059.228.059.233.062.24.066.254.061.248.061.243.056.237.056.232.053.227.051.223.049.219.048.215.046.212.046.21.044.207.043.205.043.2.043.2.043.2.043.2.043.2.043.2.046.2.044.2.046.206.047.209.049.211.051.214.052.219.053.221.056.225.059.232.062.235.063.243.068.249.052.193.052.189.051.184.051.18.048.176.049.173.048.168.048.164.045.163.047.161.046.157.046.157.047.154.044.153.047.153.046.152.047.152.046.153.049.153.048.155.049.156.05.156.051.159.052.161.052.164.055.167.055.17.056.173.06.178.059.182.061.187.064.191.062.189.061.186.058.181.057.177.055.173.053.169.051.165.05.163.049.16.049.157.048.155.047.152.048.151.047.149.048.148.048.147.048.146.049.146.051.146.05.146.053.146.054.148.057.149.057.15.061.153.061.154.066.157.067.159.072.164.074.165.079.171.082.176.048.1.046.1.044.1.043.1.043.1.038.094.039.091.038.089.036.087.035.085.034.083.034.081.033.079.034.078.035.076.033.074.034.073.035.073.035.071.037.07.036.069.038.069.039.068.042.068.044.068.045.068.048.068.051.071.054.069.057.071.06.072.059.07.16.17.163.154.171.145.179.135.186.127.193.117.2.109.2.1.21.093.217.083.219.077.223.068.225.063.228.054.228.047.232.042.228.035.23.03.228.023.225.02.222.014.219.01.215.006.209,0h.205l.2,0,.19-.006.183-.008.173-.01.166-.01.155-.011.177-.015.454,0,.4,0,.374,0,.355,0h.939l.278,0h.262l.249,0h.236l.226,0,.215,0,.21,0,.2,0,.2,0,.2,0,.192,0,.191,0,.2,0h.812l.22,0,.23,0,.24,0h.089v-.133l-.131-.177-.2-.255-.2-.237-.021-.023-.171.008-.174.008-.17.008-.169.008-.164.008-.165.008-.323.016-.159.007-.158.008-.157.008-.157.007-.157.007-.155.007-.156.007-.157.007-.157.005-.157.006-.159.006-.161.006-.161.006-.163,0-.166.005-.168.006-.171.005-.172,0-.175,0-.18,0-.182,0-.183,0h-.091l-.089,0-.086,0-.084,0-.084.005-.082.005-.081.006-.079.006-.08.006-.079.007-.08.006-.079.006-.08.006-.08.006-.079.006-.082,0-.082,0-.083,0-.084,0h-.26l-.088,0-.092,0-.092-.006-.094-.008-.095-.009-.1-.011-.1-.014-.1-.016-.1-.018-.1-.02-.124-.026-.122-.026-.121-.027-.117-.027-.115-.029-.113-.029-.113-.032-.109-.033-.109-.034-.107-.035-.106-.037-.105-.038-.1-.04-.1-.042-.1-.044-.1-.046-.1-.047-.1-.05-.1-.052-.1-.054-.1-.056-.1-.058-.1-.061-.1-.063-.1-.064-.1-.067-.1-.069-.1-.072-.1-.074-.1-.077-.1-.08-.1-.086-.186-.161-.177-.168-.166-.17-.152-.174-.143-.177-.131-.18-.123-.182-.112-.184-.1-.185-.094-.187-.087-.187-.079-.189-.072-.19-.067-.19-.061-.192-.056-.191-.053-.192-.05-.191-.047-.193-.046-.192-.044-.193-.043-.193-.044-.194-.045-.194-.045-.2-.048-.2-.05-.2-.053-.2-.056-.2-.061-.2-.064-.2-.072-.208-.107-.3-.1-.3-.1-.29-.091-.283-.088-.279-.083-.273-.08-.269-.074-.264-.072-.26-.07-.258-.067-.254-.064-.252-.062-.25-.061-.248-.059-.248-.059-.246-.056-.246-.057-.247-.057-.246-.057-.248-.057-.251-.057-.252-.059-.255-.059-.257-.062-.263-.063-.266-.065-.27-.069-.275-.071-.281-.075-.287-.077-.3-.084-.3-.085-.313-.083-.306-.081-.3-.079-.292-.076-.285-.074-.279-.074-.274-.072-.269-.071-.265-.069-.26-.069-.258-.068-.255-.066-.251-.067-.25-.068-.248-.067-.248-.067-.248-.069-.248-.069-.249-.071-.25-.07-.252-.073-.254-.074-.257-.077-.261-.079-.264-.081-.27-.083-.274-.086-.28-.089-.286-.092-.292-.1-.3-.1-.31-.145-.455-.14-.443-.134-.431-.128-.418-.125-.408-.123-.4-.118-.388-.116-.38-.115-.373-.112-.366-.112-.36-.112-.355-.112-.352-.114-.348-.116-.346-.117-.346-.12-.344-.124-.345-.129-.348-.133-.35-.139-.352-.144-.357-.153-.362-.158-.369-.167-.377-.174-.384-.186-.393-.194-.4-.2-.415-.215-.426-.228-.439-.24-.452-.1-.186-.1-.181-.1-.175-.1-.17-.1-.166-.1-.16-.1-.156-.1-.152-.1-.148-.1-.144-.1-.141-.1-.136-.1-.133-.1-.131-.1-.128-.1-.126-.106-.124-.108-.122-.11-.12-.113-.119-.117-.119-.12-.117-.124-.116-.128-.117-.131-.115-.137-.117-.141-.117-.146-.117-.153-.119-.156-.118-.163-.12-.171-.123-.123-.088-.12-.084-.116-.08-.114-.077-.113-.073-.111-.071-.108-.068-.108-.066-.106-.063-.106-.061-.1-.058-.1-.057-.1-.054-.1-.053-.1-.051-.1-.051-.106-.048-.106-.048-.109-.046-.11-.046-.112-.046-.113-.045-.116-.044-.119-.044-.121-.043-.124-.044-.126-.043-.131-.044-.133-.044-.138-.044-.141-.045-.145-.045-.139-.043-.135-.041-.13-.038-.128-.037-.125-.034-.124-.032-.12-.03-.119-.029-.116-.027-.115-.025-.113-.024-.111-.023-.112-.02-.112-.019-.11-.018-.111-.017-.11-.016-.112-.014-.113-.013-.113-.012-.115-.011-.116-.01-.12-.01-.12-.008-.123-.008-.125-.006-.129-.007-.132-.005-.134-.005-.138,0-.144,0-.141,0h-4.365l.1.221.2.413h4.071l.153,0,.16,0h.311l.152,0,.147.005.148.007.144.008.144.011.14.012.139.015.138.016.138.019.136.02.135.023.136.025.134.028.133.03.133.033.134.034.134.037.133.039.135.041.135.044.137.047.138.048.14.051.14.054.143.056.145.058.147.061.149.063Zm-4.264,3.674.106.006.106.006.1.008.1.009.1.01.1.013.1.013.1.016.1.016.1.019.1.021.1.022.1.024.1.025.1.028.1.029.1.031.1.034.1.035.1.037.1.039.1.041.1.042.1.045.108.047.11.05.2.1.2.1.191.1.182.108.176.111.169.115.164.119.155.123.151.126.145.129.14.132.133.135.13.138.125.141.121.143.117.144.113.148.11.15.107.153.1.154.1.156.1.158.1.16.1.162.1.165.1.166.1.168.1.171.1.172.1.175.1.178.107.181.115.2.11.2.1.194.1.19.092.189.089.187.083.184.077.183.075.181.069.18.065.178.064.176.059.177.057.176.055.175.052.175.051.174.049.175.05.175.047.176.048.177.047.178.047.18.048.182.049.183.049.186.052.188.054.191.056.2.059.2.062.2.064.208.094.3.093.3.087.289.086.283.082.277.079.272.076.266.074.262.072.259.069.254.069.252.065.25.065.248.063.246.063.245.061.245.06.245.06.244.06.246.061.247.061.249.061.252.063.255.062.257.064.263.067.266.066.272.07.277.072.283.073.289.077.3.079.306.054.209.052.2.051.2.048.194.048.19.046.187.046.182.044.179.043.177.042.173.04.172.042.169.04.169.04.166.039.167.04.165.039.165.04.166.039.167.04.166.041.169.042.17.042.172.042.175.044.178.044.18.047.184.047.187.049.192.05.2.052.2.055.205.064.247.064.24.061.234.06.229.059.225.057.219.056.215.056.211.053.207.053.2.053.2.052.2.051.2.052.2.051.2.052.193.052.2.051.2.052.195.054.2.053.2.054.2.055.2.056.206.059.208.06.213.06.216.063.22.063.226.067.232.069.237.071.245.057.2.054.192.053.188.05.184.048.18.047.176.045.173.043.169.043.166.041.164.042.161.039.159.042.158.039.155.04.154.041.152.042.152.043.151.043.152.044.152.046.152.048.154.05.154.052.156.053.158.057.159.059.163.063.166.065.169.069.172.072.176.078.182.056.133.056.132.053.129.052.125.049.123.048.12.047.117.047.115.046.112.044.11.044.108.045.105.043.1.044.1.043.1.045.1.045.1.047.1.048.095.049.094.051.092.052.093.053.093.058.092.059.093.062.093.067.094.069.095.072.1.077.1.081.1.085.1.1.113.1.109.1.1.1.1.1.1.095.092.094.089.094.085.094.081.094.079.095.075.095.073.1.071.1.068.1.066.1.064.1.064.1.062.1.06.106.06.108.059.112.058.113.058.116.057.12.057.123.057.125.058.13.058.134.058.136.06.14.06.141.06.215.085.205.077.2.068.2.062.2.053.191.047.188.042.188.036.185.029.186.025.184.021.184.016.185.013.186.008.186.006.188,0,.189,0,.193,0,.194,0,.2,0,.2-.006.2-.005.207-.006.212-.006.216-.005.221,0,.225,0h.231l.235,0,.241.005.248.009.249.011.335.019.327.018.323.018.318.017.314.017.31.017.307.015.3.015.3.014.3.012.3.013.295.011.293.01.292.009.29.008.291.007.291.006.29,0,.291,0,.292,0h.294l.294,0h.3l.3,0,.3-.006.3-.007.307-.008.312-.011.316-.012.254-.012-.047-.217-.1-.389-.107-.386-.12-.382-.131-.378-.141-.372-.153-.365-.159-.356-.168-.348-.15-.289-.171-.005-.279-.006-.263-.005-.25,0-.236,0-.225,0-.216,0h-.989l-.189,0-.192,0-.193,0-.2,0-.2,0-.209,0-.217,0-.228,0-.238,0-.251,0h-.264l-.28,0h-.612l-.335,0H463.2l-.378,0-.4,0-.4,0-.124.01-.167.013-.179.012-.186.01-.2.008-.207.006-.214,0h-.222l-.23,0-.235-.007-.241-.011-.246-.016-.249-.021-.255-.027-.257-.034-.259-.04-.261-.046-.262-.056-.264-.063-.264-.071-.262-.082-.261-.09-.26-.1-.257-.112-.253-.123-.249-.135-.243-.148-.238-.161-.232-.175-.223-.189-.214-.2-.2-.214-.083-.1-.074-.091-.073-.091-.071-.09-.065-.089-.062-.09-.06-.089-.058-.089-.054-.088-.051-.088-.05-.088-.047-.088-.044-.086-.043-.086-.042-.087-.041-.086-.039-.085-.037-.086-.038-.086-.035-.085-.037-.085-.035-.085-.037-.087-.035-.086-.035-.086-.038-.087-.037-.087-.038-.09-.04-.089-.04-.091-.043-.093-.046-.1-.085-.181-.082-.18-.078-.176-.076-.173-.072-.17-.069-.167-.066-.164-.064-.162-.063-.16-.058-.158-.058-.156-.055-.155-.053-.154-.053-.153-.051-.153-.051-.152-.048-.152-.05-.153-.048-.152-.047-.153-.049-.154-.048-.156-.048-.158-.05-.159-.049-.161-.051-.164-.053-.166-.054-.171-.056-.173-.057-.177-.059-.181-.061-.187-.064-.192-.061-.187-.061-.183-.059-.179-.057-.175-.056-.171-.055-.169-.054-.165-.052-.163-.052-.161-.05-.159-.05-.158-.05-.156-.047-.155-.048-.155-.047-.155-.048-.155-.047-.155-.047-.156-.047-.157-.046-.159-.048-.161-.046-.162-.048-.165-.047-.168-.047-.17-.05-.174-.049-.177-.051-.182-.051-.187-.052-.19-.054-.2-.068-.253-.066-.248-.062-.242-.06-.237-.058-.232-.054-.227-.053-.222-.051-.219-.049-.216-.049-.212-.047-.21-.046-.207-.045-.2-.043-.2-.043-.2-.043-.2-.043-.2-.043-.2-.043-.2-.043-.2-.044-.2-.045-.206-.046-.209-.047-.212-.05-.214-.048-.219-.053-.223-.054-.226-.057-.231-.059-.238-.06-.243-.065-.251-.061-.239-.062-.234-.058-.228-.057-.222-.105-.411-.058-.229-.053-.2-.052-.2-.051-.2-.05-.2-.05-.194-.05-.191-.049-.189-.051-.188-.05-.188-.051-.188-.05-.189-.052-.189-.053-.189-.055-.191-.055-.193-.056-.2-.057-.2-.059-.2-.062-.2-.064-.208-.067-.212-.067-.218-.07-.222-.073-.227-.075-.235-.08-.24-.077-.235-.074-.228-.076-.223-.07-.217-.072-.213-.07-.209-.07-.2-.069-.2-.068-.2-.069-.194-.067-.193-.068-.191-.068-.189-.068-.188-.069-.187-.069-.187-.069-.187-.071-.187-.072-.189-.074-.19-.074-.193-.077-.193-.077-.2-.081-.2-.083-.2-.084-.208-.087-.211-.089-.216-.094-.222-.1-.227-.1-.235-.082-.2-.078-.195-.073-.19-.069-.187-.068-.183-.063-.179-.062-.176-.059-.173-.058-.169-.057-.166-.055-.162-.055-.16-.054-.156-.056-.154-.055-.151-.056-.15-.059-.147-.058-.145-.062-.143-.063-.141-.067-.14-.07-.139-.073-.138-.077-.137-.082-.138-.085-.137-.093-.138-.1-.138-.1-.139-.11-.14-.116-.142-.127-.144-.1-.108-.1-.107-.1-.1-.094-.1-.094-.095-.091-.092-.092-.089-.09-.085-.09-.082-.09-.08-.089-.077-.089-.074-.09-.072-.09-.069-.09-.069-.093-.067-.092-.065-.094-.062-.1-.063-.1-.06-.1-.06-.1-.06-.1-.058-.108-.058-.109-.058-.113-.057-.116-.057-.12-.058-.124-.057-.128-.058-.131-.058-.138-.059-.14-.059-.138-.057-.135-.054-.132-.051-.127-.049-.127-.046-.123-.044-.121-.042-.12-.038-.119-.037-.116-.034-.115-.032-.114-.029-.115-.028-.114-.026-.113-.023-.115-.021-.115-.019-.115-.018-.117-.015-.119-.015-.12-.013-.121-.011-.125-.009-.128-.008-.13-.006-.133,0-.137,0h-.284l-.147,0-.162,0h-3.694l.089.3.109.388.1.394.093.4.085.4.077.407.067.411.059.413.011.085,2.6.127h.436l.109,0,.108,0Zm-19.557-.836h14.965l-.071-.376-.08-.379-.087-.374-.1-.37-.1-.364-.108-.357-.09-.281-.177-.413H413.387l.031.05.21.362.205.373.2.386.189.4.179.407.168.417.154.426.031.1Zm-2.2-4.17.027.038h15.861l-.018-.04-.089-.181-.2-.379-.144-.257-.115-.189H411.752l.16.189.208.256.212.274.218.29Zm59.578,48.143h15l-.025-.186-.055-.356-.063-.352-.069-.347-.076-.341-.083-.333-.088-.327-.1-.319-.046-.141-.46-.618H470.858v.043l.172.331.184.379.175.39.164.4.154.405.143.413.132.419.118.423.029.12Zm-2.791-5.514.213.249.228.289.224.3.09.132H485.7l-.014-.023-.287-.416-.093-.118-.149-.172-.153-.153-.155-.135-.048-.036H469.338v.08Z" transform="translate(-376 -1135)"/><path class="b" d="M383.349,1225.78v5.145a5.712,5.712,0,0,0,.179,1.87,1.359,1.359,0,0,0,.642.619,4.368,4.368,0,0,0,1.722.231v.5H376.5v-.5a4.132,4.132,0,0,0,1.726-.24,1.4,1.4,0,0,0,.639-.614,5.68,5.68,0,0,0,.18-1.866V1219.02a5.759,5.759,0,0,0-.18-1.875,1.337,1.337,0,0,0-.647-.615,4.237,4.237,0,0,0-1.717-.231v-.5h8.525a18.716,18.716,0,0,1,4.872.461,4.912,4.912,0,0,1,2.517,1.7,4.56,4.56,0,0,1,.974,2.9,4.345,4.345,0,0,1-1.463,3.358,6.026,6.026,0,0,1-2.61,1.256l4.41,6.211a9.587,9.587,0,0,0,1.229,1.5,2.292,2.292,0,0,0,1.288.463v.5h-5.777l-5.912-8.364Zm0-9v8.036h.772a8.633,8.633,0,0,0,2.812-.343,2.8,2.8,0,0,0,1.468-1.247,4.554,4.554,0,0,0,.537-2.346,3.567,3.567,0,0,0-4.143-4.1Zm24.176,12.136h-6.479l-.772,1.787a3.949,3.949,0,0,0-.379,1.473,1.219,1.219,0,0,0,.625,1.137,5.153,5.153,0,0,0,1.8.327v.5h-6.1v-.5a2.728,2.728,0,0,0,1.621-.823,10.694,10.694,0,0,0,1.57-2.766l6.562-14.64h.259l6.613,15.046a9.177,9.177,0,0,0,1.556,2.693,2.143,2.143,0,0,0,1.3.49v.5h-8.876v-.5h.365a2.769,2.769,0,0,0,1.5-.3.727.727,0,0,0,.3-.624,1.611,1.611,0,0,0-.082-.5c-.02-.083-.153-.421-.407-1.017l-.975-2.286Zm-.461-1-2.73-6.318-2.818,6.318Zm9.31,6.226v-.5h.609a2.4,2.4,0,0,0,1.225-.255,1.5,1.5,0,0,0,.628-.684,6.333,6.333,0,0,0,.124-1.7v-12.068a5.943,5.943,0,0,0-.151-1.76,1.319,1.319,0,0,0-.6-.614,2.427,2.427,0,0,0-1.225-.263h-.609v-.5h8.211a13.139,13.139,0,0,1,5.294.9,7.818,7.818,0,0,1,3.713,3.311,10.559,10.559,0,0,1,.641,8.586,8.2,8.2,0,0,1-1.606,2.692,7.9,7.9,0,0,1-2.282,1.709,12.426,12.426,0,0,1-3.159.993,15.107,15.107,0,0,1-2.6.162Zm7-17.305v14.317a5.184,5.184,0,0,0,.107,1.39.776.776,0,0,0,.364.394,2.188,2.188,0,0,0,1.058.2,4.091,4.091,0,0,0,3.45-1.543q1.621-2.084,1.622-6.465a12.208,12.208,0,0,0-1.11-5.643,4.739,4.739,0,0,0-2.259-2.244,8.692,8.692,0,0,0-3.233-.407Z" transform="translate(-376.308 -1184.594)"/><path class="b" d="M609.968,1178.545v5.088a5.542,5.542,0,0,0,.185,1.871,1.314,1.314,0,0,0,.647.619,4.362,4.362,0,0,0,1.714.23v.5h-9.325v-.5a4.164,4.164,0,0,0,1.727-.239,1.4,1.4,0,0,0,.637-.615,5.682,5.682,0,0,0,.18-1.866v-11.9a5.772,5.772,0,0,0-.18-1.875,1.336,1.336,0,0,0-.647-.615,4.236,4.236,0,0,0-1.717-.231v-.5h8q3.949,0,5.668,1.409a4.364,4.364,0,0,1,1.717,3.519,4.5,4.5,0,0,1-1.108,3.059,5.675,5.675,0,0,1-3.058,1.731,20.814,20.814,0,0,1-4.438.325Zm0-8.984v7.93c.3.018.522.028.678.028a3.251,3.251,0,0,0,2.541-.984,4.4,4.4,0,0,0,.895-3.038,4.248,4.248,0,0,0-.895-2.989,3.488,3.488,0,0,0-2.665-.946Zm20.144-1.311a9.1,9.1,0,0,1,9.866,9.361,9.775,9.775,0,0,1-2.042,6.141,9.088,9.088,0,0,1-7.648,3.519,9.282,9.282,0,0,1-7.658-3.357,9.737,9.737,0,0,1-2.138-6.292,9.148,9.148,0,0,1,2.781-6.81,8.833,8.833,0,0,1,6.839-2.563Zm.167.863a4.142,4.142,0,0,0-3.833,2.573,13.742,13.742,0,0,0-1.067,6.059q0,4.7,1.649,6.942a3.761,3.761,0,0,0,3.225,1.57,3.882,3.882,0,0,0,2.326-.674,5.585,5.585,0,0,0,1.852-2.771,15.29,15.29,0,0,0,.664-4.956,16.415,16.415,0,0,0-.678-5.445,5.32,5.32,0,0,0-1.727-2.555,4.076,4.076,0,0,0-2.41-.743Zm28.179,11.3-.687,6.442H641.48v-.5h.608a2.53,2.53,0,0,0,1.284-.285,1.241,1.241,0,0,0,.544-.651,5.609,5.609,0,0,0,.148-1.7v-12.068a6.136,6.136,0,0,0-.148-1.76,1.339,1.339,0,0,0-.6-.614,2.429,2.429,0,0,0-1.223-.264h-.608v-.5h9.785v.5h-.8a2.544,2.544,0,0,0-1.287.282,1.334,1.334,0,0,0-.555.652,5.613,5.613,0,0,0-.148,1.7v11.689a6.036,6.036,0,0,0,.161,1.792,1.077,1.077,0,0,0,.638.577,6.294,6.294,0,0,0,1.634.121h1.529a5.231,5.231,0,0,0,2.439-.512,4.53,4.53,0,0,0,1.681-1.626,13.093,13.093,0,0,0,1.347-3.274Z" transform="translate(-516.11 -1155.5)"/><path class="c" d="M5.718-11.248a5.033,5.033,0,0,1,2.542.652A4.732,4.732,0,0,1,10.052-8.8,5.005,5.005,0,0,1,10.7-6.276a5,5,0,0,1-.666,2.542,4.9,4.9,0,0,1-1.813,1.82,4.961,4.961,0,0,1-2.535.666,4.922,4.922,0,0,1-2.528-.666,4.874,4.874,0,0,1-1.8-1.813A4.975,4.975,0,0,1,.7-6.248a4.975,4.975,0,0,1,.659-2.521,4.858,4.858,0,0,1,1.806-1.813A4.987,4.987,0,0,1,5.718-11.248ZM5.69-2.027a4.1,4.1,0,0,0,2.132-.567A4.133,4.133,0,0,0,9.33-4.13a4.261,4.261,0,0,0,.552-2.146,4.27,4.27,0,0,0-.538-2.132A3.968,3.968,0,0,0,7.857-9.917a4.173,4.173,0,0,0-2.139-.552,4.207,4.207,0,0,0-2.153.559A4.027,4.027,0,0,0,2.057-8.387a4.265,4.265,0,0,0-.545,2.139,4.265,4.265,0,0,0,.545,2.139,4.042,4.042,0,0,0,1.5,1.523A4.142,4.142,0,0,0,5.69-2.027ZM8.282-7.1a1.883,1.883,0,0,1-.29,1.062,1.8,1.8,0,0,1-.829.666L8.409-3.458H7.191l-1.1-1.7H4.826v1.7H3.608V-9.038H5.931a2.611,2.611,0,0,1,1.721.524A1.746,1.746,0,0,1,8.282-7.1ZM5.86-6.106a1.435,1.435,0,0,0,.921-.262A.884.884,0,0,0,7.106-7.1.864.864,0,0,0,6.78-7.82a1.463,1.463,0,0,0-.921-.255H4.812v1.969Z" transform="translate(148 11.248)"/></svg>