<svg xmlns="http://www.w3.org/2000/svg" width="90" height="89.987" viewBox="0 0 90 89.987"><defs><style>.a{fill:#fff;}</style></defs><path class="a" d="M80.64,94.167a3.75,3.75,0,1,0,3.75-3.75A3.75,3.75,0,0,0,80.64,94.167Z" transform="translate(-28.8 -32.292)"/><path class="a" d="M103.973,94.167a3.75,3.75,0,1,0,3.75-3.75A3.75,3.75,0,0,0,103.973,94.167Z" transform="translate(-37.133 -32.292)"/><path class="a" d="M105.363,96.815a20.081,20.081,0,0,0,5.1-13.189c0-12.338-11.925-22.376-26.58-22.376s-26.58,10.039-26.58,22.376S69.232,106,83.887,106a30.623,30.623,0,0,0,6.772-.776l12.506,6.251a3.75,3.75,0,0,0,5.25-4.429Zm-7.811.06,1.2,4.009-5.978-3a3.75,3.75,0,0,0-2.662-.262c-13.166,3.574-25.309-4.237-25.309-14.01,0-8.2,8.557-14.876,19.08-14.876s19.08,6.686,19.08,14.891a13.02,13.02,0,0,1-4.4,9.446,3.75,3.75,0,0,0-1.02,3.8Z" transform="translate(-20.467 -21.875)"/><path class="a" d="M24.079,67.811,15,72.03l4.462-8.91a3.75,3.75,0,0,0-1.009-4.612A27.038,27.038,0,0,1,7.5,37.4C7.5,20.914,24.323,7.5,45,7.5c18.9,0,34.9,11.272,37.215,26.22a3.75,3.75,0,1,0,7.411-1.151C86.753,14,67.567,0,45,0,20.186,0,0,16.778,0,37.4A33.791,33.791,0,0,0,11.464,62.374L3.491,78.289a3.75,3.75,0,0,0,4.935,5.077l18.817-8.741a3.75,3.75,0,1,0-3.165-6.795Z"/><path class="a" d="M50.937,27.708a2.813,2.813,0,0,0-2.812,2.813v7.5a2.813,2.813,0,0,0,5.625,0v-7.5A2.813,2.813,0,0,0,50.937,27.708Z" transform="translate(-17.187 -9.896)"/><path class="a" d="M83.125,30.521v7.5a2.812,2.812,0,1,0,5.625,0v-7.5a2.812,2.812,0,1,0-5.625,0Z" transform="translate(-29.687 -9.896)"/><path class="a" d="M45.944,68.641a19.687,19.687,0,0,1-8.857-5.107,2.812,2.812,0,1,0-3.979,3.975,25.309,25.309,0,0,0,11.4,6.566,2.813,2.813,0,1,0,1.44-5.434Z" transform="translate(-11.53 -22.396)"/></svg>